<svg xmlns="http://www.w3.org/2000/svg" width="24" height="24" viewBox="0 0 24 24">
  <g id="Grupo_4156" data-name="Grupo 4156" transform="translate(-12657 17875)">
    <rect id="Rectángulo_5081" data-name="Rectángulo 5081" width="24" height="24" transform="translate(12657 -17875)" fill="none"/>
    <g id="Icon_Finance-and-justice_Tax-returns-24" data-name="Icon/Finance-and-justice/Tax-returns-24" transform="translate(12659 -17873)">
      <path id="Combined-Shape" d="M14.375,8.75A5.625,5.625,0,1,1,8.75,14.375,5.631,5.631,0,0,1,14.375,8.75Zm0,1.25a4.375,4.375,0,1,0,4.375,4.375A4.38,4.38,0,0,0,14.375,10ZM10.733,0a1.863,1.863,0,0,1,1.325.548l2.393,2.393A1.863,1.863,0,0,1,15,4.268V6.875a.625.625,0,0,1-1.25,0V4.268a.632.632,0,0,0-.182-.442L11.174,1.433a.623.623,0,0,0-.442-.183H1.875a.625.625,0,0,0-.625.625v13.75a.625.625,0,0,0,.625.625h5a.625.625,0,0,1,0,1.25h-5A1.877,1.877,0,0,1,0,15.625V1.875A1.877,1.877,0,0,1,1.875,0ZM16.6,12.3a.625.625,0,0,1,.5,1l-2.421,3.228a1.259,1.259,0,0,1-1,.5,1.241,1.241,0,0,1-.752-.251,1.183,1.183,0,0,1-.132-.115l-1.249-1.249a.627.627,0,0,1,0-.884.624.624,0,0,1,.883,0l1.25,1.25L16.1,12.545A.628.628,0,0,1,16.6,12.3Z" fill="#0ca6b3"/>
    </g>
  </g>
</svg>
