<svg xmlns="http://www.w3.org/2000/svg" width="80" height="80" viewBox="0 0 80 80">
  <g id="Grupo_4021" data-name="Grupo 4021" transform="translate(24168 22656)">
    <rect id="Rectángulo_5051" data-name="Rectángulo 5051" width="80" height="80" transform="translate(-24168 -22656)" fill="none"/>
    <g id="Grupo_4020" data-name="Grupo 4020" transform="translate(-24168 -22652)">
      <rect id="Rectángulo_4089" data-name="Rectángulo 4089" width="11.284" height="5.908" transform="translate(62.563 32.545)" fill="#f1f1f1"/>
      <rect id="Rectángulo_4090" data-name="Rectángulo 4090" width="11.284" height="5.907" transform="translate(62.563 57.651)" fill="#f1f1f1"/>
      <rect id="Rectángulo_4091" data-name="Rectángulo 4091" width="11.284" height="5.908" transform="translate(6.153 32.545)" fill="#f1f1f1"/>
      <rect id="Rectángulo_4092" data-name="Rectángulo 4092" width="11.284" height="5.907" transform="translate(3.913 57.651)" fill="#f1f1f1"/>
      <rect id="Rectángulo_4093" data-name="Rectángulo 4093" width="11.284" height="5.908" transform="translate(62.563 45.098)" fill="#f1f1f1"/>
      <rect id="Rectángulo_4094" data-name="Rectángulo 4094" width="11.284" height="5.908" transform="translate(6.153 45.098)" fill="#f1f1f1"/>
      <path id="Trazado_1549" data-name="Trazado 1549" d="M443.016,864.326V846.59h-4.7v24.133h17v-6.4Z" transform="translate(-406.82 -799.623)" fill="#dedede"/>
      <path id="Trazado_1550" data-name="Trazado 1550" d="M431.983,844.961V780.787H428.03a1.8,1.8,0,0,0-1.669,1.9v68.672H460.24v-6.4Z" transform="translate(-403.301 -780.258)" fill="#dedede"/>
      <path id="Trazado_1551" data-name="Trazado 1551" d="M400.833,855.166v-39.7h-4.5a1.9,1.9,0,0,0-1.9,1.9v44.2h22.53v-6.4Z" transform="translate(-393.906 -790.464)" fill="#dedede"/>
      <path id="Trazado_1552" data-name="Trazado 1552" d="M480.767,855.166v-39.7h-4.5a1.9,1.9,0,0,0-1.9,1.9v44.2H496.9v-6.4Z" transform="translate(-417.429 -790.464)" fill="#dedede"/>
      <path id="Trazado_1553" data-name="Trazado 1553" d="M497.208,861.874h-23.59V817.132a2.418,2.418,0,0,1,2.416-2.415h18.759a2.418,2.418,0,0,1,2.415,2.415Zm-22.531-1.059h21.473V817.132a1.358,1.358,0,0,0-1.356-1.356H476.034a1.358,1.358,0,0,0-1.357,1.356Z" transform="translate(-417.208 -790.244)" fill="#272424"/>
      <path id="Trazado_1554" data-name="Trazado 1554" d="M417.274,861.874H393.685V817.132a2.418,2.418,0,0,1,2.415-2.415h18.759a2.418,2.418,0,0,1,2.415,2.415Zm-22.531-1.059h21.472V817.132a1.358,1.358,0,0,0-1.356-1.356H396.1a1.358,1.358,0,0,0-1.356,1.356Z" transform="translate(-393.685 -790.244)" fill="#272424"/>
      <path id="Trazado_1555" data-name="Trazado 1555" d="M460.549,851.668H425.611V782.453a2.418,2.418,0,0,1,2.416-2.415h30.107a2.418,2.418,0,0,1,2.415,2.415ZM426.67,850.61H459.49V782.453a1.358,1.358,0,0,0-1.356-1.356H428.027a1.358,1.358,0,0,0-1.357,1.356Z" transform="translate(-403.08 -780.038)" fill="#272424"/>
      <path id="Trazado_1556" data-name="Trazado 1556" d="M455.63,871.033H437.567V845.841H455.63Zm-17-1.059h15.946V846.9H438.626Z" transform="translate(-406.599 -799.403)" fill="#272424"/>
      <path id="Trazado_1557" data-name="Trazado 1557" d="M450.144,871.033a.53.53,0,0,1-.529-.529V846.37a.529.529,0,0,1,1.059,0V870.5a.53.53,0,0,1-.529.529" transform="translate(-410.144 -799.403)" fill="#272424"/>
      <path id="Trazado_1558" data-name="Trazado 1558" d="M493.929,832.371H481.587v-6.966h12.342Zm-11.284-1.058H492.87v-4.849H482.645Z" transform="translate(-419.553 -793.389)" fill="#272424"/>
      <path id="Trazado_1559" data-name="Trazado 1559" d="M493.929,867.944H481.587v-6.965h12.342Zm-11.284-1.059H492.87v-4.848H482.645Z" transform="translate(-419.553 -803.858)" fill="#272424"/>
      <path id="Trazado_1560" data-name="Trazado 1560" d="M414,832.371H401.654v-6.966H414Zm-11.284-1.058h10.225v-4.849H402.713Z" transform="translate(-396.03 -793.389)" fill="#272424"/>
      <path id="Trazado_1561" data-name="Trazado 1561" d="M414,867.944H401.653v-6.965H414Zm-11.284-1.059h10.225v-4.848H402.712Z" transform="translate(-396.03 -803.858)" fill="#272424"/>
      <path id="Trazado_1562" data-name="Trazado 1562" d="M493.929,850.158H481.587v-6.966h12.342ZM482.645,849.1H492.87v-4.849H482.645Z" transform="translate(-419.553 -798.623)" fill="#272424"/>
      <path id="Trazado_1563" data-name="Trazado 1563" d="M414,850.158H401.654v-6.966H414ZM402.713,849.1h10.225v-4.849H402.713Z" transform="translate(-396.03 -798.623)" fill="#272424"/>
      <path id="Trazado_1564" data-name="Trazado 1564" d="M444.084,794.227h3.656a1.819,1.819,0,0,1,1.8,1.836v4.944h5.19a1.82,1.82,0,0,1,1.8,1.835v3.619a1.821,1.821,0,0,1-1.8,1.836h-5.19v5.266a1.819,1.819,0,0,1-1.8,1.836h-3.656a1.819,1.819,0,0,1-1.8-1.836V808.3h-5.114a1.82,1.82,0,0,1-1.8-1.836v-3.619a1.819,1.819,0,0,1,1.8-1.835h5.114v-4.944a1.819,1.819,0,0,1,1.8-1.836" transform="translate(-405.951 -784.214)" fill="#749806"/>
    </g>
  </g>
</svg>
