<svg xmlns="http://www.w3.org/2000/svg" width="80" height="80.838" viewBox="0 0 80 80.838">
  <g id="Grupo_4019" data-name="Grupo 4019" transform="translate(23960 22833.75)">
    <rect id="Rectángulo_5052" data-name="Rectángulo 5052" width="80" height="80" transform="translate(-23960 -22833)" fill="none"/>
    <g id="Grupo_4018" data-name="Grupo 4018" transform="translate(-23954 -22833)">
      <path id="Trazado_1537" data-name="Trazado 1537" d="M158.489,982.98v-4.808a4.567,4.567,0,0,1,4.6-4.537h3.81a4.481,4.481,0,0,1,1.08-2.919H163.3a4.567,4.567,0,0,0-4.6,4.537h-3.81a4.567,4.567,0,0,0-4.6,4.537V984.6h30.712V982.98Z" transform="translate(-137.231 -970.716)" fill="#dedede"/>
      <path id="Trazado_1538" data-name="Trazado 1538" d="M143.311,1048.48a.753.753,0,0,1-.758-.747V987.876h-4.1a4.072,4.072,0,0,0-4.1,4.045v57.368a4.072,4.072,0,0,0,4.1,4.045h48.639a4.071,4.071,0,0,0,4.1-4.045v-.809Z" transform="translate(-134.357 -973.994)" fill="#dedede"/>
      <line id="Línea_3" data-name="Línea 3" x1="15.557" transform="translate(10.241 31.414)" fill="none" stroke="#272424" stroke-linecap="round" stroke-miterlimit="10" stroke-width="1.5"/>
      <line id="Línea_4" data-name="Línea 4" x1="15.557" transform="translate(10.241 25.13)" fill="none" stroke="#272424" stroke-linecap="round" stroke-miterlimit="10" stroke-width="1.5"/>
      <line id="Línea_5" data-name="Línea 5" x1="15.557" transform="translate(10.241 69.848)" fill="none" stroke="#272424" stroke-linecap="round" stroke-miterlimit="10" stroke-width="1.5"/>
      <line id="Línea_6" data-name="Línea 6" x1="15.557" transform="translate(10.241 63.564)" fill="none" stroke="#272424" stroke-linecap="round" stroke-miterlimit="10" stroke-width="1.5"/>
      <rect id="Rectángulo_4082" data-name="Rectángulo 4082" width="56.836" height="65.457" rx="5" transform="translate(0 13.882)" fill="none" stroke="#272424" stroke-miterlimit="10" stroke-width="1.5"/>
      <rect id="Rectángulo_4083" data-name="Rectángulo 4083" width="10.454" height="10.317" rx="0.925" transform="translate(37.531 61.848)" fill="none" stroke="#272424" stroke-miterlimit="10" stroke-width="1.5"/>
      <rect id="Rectángulo_4084" data-name="Rectángulo 4084" width="10.454" height="10.317" rx="0.925" transform="translate(37.531 23.271)" fill="none" stroke="#272424" stroke-miterlimit="10" stroke-width="1.5"/>
      <path id="Trazado_1539" data-name="Trazado 1539" d="M172.6,975.253h0a4.567,4.567,0,0,0-4.6-4.537h-4.7a4.567,4.567,0,0,0-4.6,4.537h-3.81a4.567,4.567,0,0,0-4.6,4.537V984.6h30.712v-4.808a4.568,4.568,0,0,0-4.6-4.537Z" transform="translate(-137.231 -970.716)" fill="none" stroke="#272424" stroke-miterlimit="10" stroke-width="1.5"/>
      <path id="Trazado_1540" data-name="Trazado 1540" d="M171.522,978.965a3.2,3.2,0,1,1-3.2-3.156A3.176,3.176,0,0,1,171.522,978.965Z" transform="translate(-139.907 -971.689)" fill="none" stroke="#272424" stroke-miterlimit="10" stroke-width="1.5"/>
      <line id="Línea_7" data-name="Línea 7" x1="15.557" transform="translate(10.241 50.353)" fill="none" stroke="#272424" stroke-linecap="round" stroke-miterlimit="10" stroke-width="1.5"/>
      <line id="Línea_8" data-name="Línea 8" x1="15.557" transform="translate(10.241 44.068)" fill="none" stroke="#272424" stroke-linecap="round" stroke-miterlimit="10" stroke-width="1.5"/>
      <rect id="Rectángulo_4085" data-name="Rectángulo 4085" width="10.454" height="10.317" rx="0.925" transform="translate(37.531 42.353)" fill="none" stroke="#272424" stroke-miterlimit="10" stroke-width="1.5"/>
      <path id="Trazado_1541" data-name="Trazado 1541" d="M182.029,1005.7l2.151,2.123,5.217-5.149" transform="translate(-142.955 -976.822)" fill="none" stroke="#272424" stroke-linecap="round" stroke-miterlimit="10" stroke-width="1.5"/>
      <path id="Trazado_1542" data-name="Trazado 1542" d="M182.029,1029.292l2.151,2.123,5.217-5.149" transform="translate(-142.955 -981.328)" fill="none" stroke="#272424" stroke-linecap="round" stroke-miterlimit="10" stroke-width="1.5"/>
      <path id="Trazado_1543" data-name="Trazado 1543" d="M182.029,1053.391l2.151,2.123,5.217-5.149" transform="translate(-142.955 -985.932)" fill="none" stroke="#272424" stroke-linecap="round" stroke-miterlimit="10" stroke-width="1.5"/>
      <path id="Trazado_1544" data-name="Trazado 1544" d="M213.967,1050.478a13.166,13.166,0,1,1-13.165-12.993,13.079,13.079,0,0,1,13.165,12.993" transform="translate(-143.967 -983.472)" fill="#749806"/>
      <path id="Trazado_1545" data-name="Trazado 1545" d="M198.811,1057.783a1.575,1.575,0,1,0,1.575-1.554,1.565,1.565,0,0,0-1.575,1.554" transform="translate(-145.982 -987.053)" fill="#fff"/>
      <path id="Trazado_1670" data-name="Trazado 1670" d="M0,0,3.794.025l.021,3.129L.021,3.129Z" transform="translate(53.231 69.685) rotate(-45)" fill="#fff"/>
      <path id="Trazado_1546" data-name="Trazado 1546" d="M211.162,1048.576a1.575,1.575,0,1,0-1.575,1.554,1.565,1.565,0,0,0,1.575-1.554" transform="translate(-147.642 -985.294)" fill="#fff"/>
      <path id="Trazado_1671" data-name="Trazado 1671" d="M0,0,7.006.046l.021,3.13L.021,3.13Z" transform="translate(55.817 67.138) rotate(-45.011)" fill="#fff"/>
      <path id="Trazado_1547" data-name="Trazado 1547" d="M201.961,1057.783a1.575,1.575,0,1,1-1.574-1.554,1.564,1.564,0,0,1,1.574,1.554" transform="translate(-145.982 -987.053)" fill="#fff"/>
      <path id="Trazado_1548" data-name="Trazado 1548" d="M198.694,1054.51a1.575,1.575,0,1,1-1.575-1.554,1.564,1.564,0,0,1,1.575,1.554" transform="translate(-145.393 -986.427)" fill="#fff"/>
      <path id="Trazado_1672" data-name="Trazado 1672" d="M0,0,3.129.021l.025,3.794L.025,3.794Z" transform="translate(50.65 69.218) rotate(-45)" fill="#fff"/>
    </g>
  </g>
</svg>
