<svg id="Grupo_4155" data-name="Grupo 4155" xmlns="http://www.w3.org/2000/svg" width="24" height="24" viewBox="0 0 24 24">
  <rect id="Rectángulo_4877" data-name="Rectángulo 4877" width="24" height="24" fill="none"/>
  <g id="Icon_Nav_Delete-24" data-name="Icon/Nav/Delete-24" transform="translate(2 3)">
    <path id="Combined-Shape" d="M12.143,1a2.113,2.113,0,0,1,2.143,2.077v.692h5a.693.693,0,1,1,0,1.385H17.143V16.923A2.113,2.113,0,0,1,15,19H5a2.113,2.113,0,0,1-2.143-2.077V5.154H.714a.693.693,0,1,1,0-1.385h5V3.077A2.113,2.113,0,0,1,7.857,1Zm3.571,4.154H4.286V16.923A.7.7,0,0,0,5,17.615H15a.7.7,0,0,0,.714-.692ZM8.333,8.364a.761.761,0,0,1,.833.655v5.236a.761.761,0,0,1-.833.655.761.761,0,0,1-.833-.655V9.018A.761.761,0,0,1,8.333,8.364Zm4.167,0a.761.761,0,0,1,.833.655v5.236a.761.761,0,0,1-.833.655.761.761,0,0,1-.833-.655V9.018A.761.761,0,0,1,12.5,8.364Zm-.357-5.979H7.857a.7.7,0,0,0-.714.692v.692h5.714V3.077A.7.7,0,0,0,12.143,2.385Z" transform="translate(0 -1)" fill="#526570"/>
  </g>
</svg>
