<svg xmlns="http://www.w3.org/2000/svg" width="80" height="80" viewBox="0 0 80 80">
  <g id="Grupo_4027" data-name="Grupo 4027" transform="translate(23179 -3319)">
    <rect id="Rectángulo_4171" data-name="Rectángulo 4171" width="80" height="80" transform="translate(-23179 3319)" fill="none"/>
    <g id="Grupo_3093" data-name="Grupo 3093" transform="translate(-23720.145 3230.526)">
      <path id="Trazado_1483" data-name="Trazado 1483" d="M640.831,165.378l-1.844-4.757-2.241,1.308,2.393,6.174,4.309-1.455-.733-1.907Z" transform="translate(-35.613 -23.7)" fill="#dedede"/>
      <path id="Trazado_1484" data-name="Trazado 1484" d="M647.37,173.651a3.07,3.07,0,1,1-3.07-3.086,3.078,3.078,0,0,1,3.07,3.086" transform="translate(-37.284 -27.374)" fill="#dedede"/>
      <path id="Trazado_1485" data-name="Trazado 1485" d="M570.816,172.792a3.07,3.07,0,1,1-3.07-3.085,3.078,3.078,0,0,1,3.07,3.085" transform="translate(-8.766 -27.057)" fill="#dedede"/>
      <path id="Trazado_1486" data-name="Trazado 1486" d="M587.955,163.828h5.671a1.868,1.868,0,0,1,0,3.735H589.76" transform="translate(-17.438 -24.884)" fill="#dedede"/>
      <path id="Trazado_1487" data-name="Trazado 1487" d="M638.266,127.227l-.82-4.434h-1.314a4.709,4.709,0,0,0-4.631,3.9l1.671,4.491a4.665,4.665,0,0,0,2.96,1.054h3.786a.919.919,0,0,0,.916-.921V129.8l-.025,0a3.137,3.137,0,0,1-2.543-2.573" transform="translate(-33.66 -9.724)" fill="#dedede"/>
      <path id="Trazado_1488" data-name="Trazado 1488" d="M620.168,126.539h0a2.486,2.486,0,0,0,1.175-3.125l-2.312-5.869h-5.718a1.987,1.987,0,0,1-1.933-1.552,2,2,0,0,0-1.515,2.219,2.048,2.048,0,0,0,2.053,1.718h5.634Z" transform="translate(-25.592 -7.211)" fill="#dedede"/>
      <path id="Trazado_1489" data-name="Trazado 1489" d="M630.494,145.752l-3.211-8.35a2.531,2.531,0,0,0-3.489-1.366l-.846.421L621,134.342l-2.5,1.279,2.966,3.221,3.336-1.656,4.211,10.952,3.77-1.274-.641-1.668Z" transform="translate(-28.817 -13.991)" fill="#dedede"/>
      <path id="Trazado_1490" data-name="Trazado 1490" d="M548.7,143.382a1.57,1.57,0,0,1-1.466-1.02,5.449,5.449,0,0,0-.7,2.68l-3.221.061a1.577,1.577,0,0,0-1.572,1.58v.53a1.576,1.576,0,0,0,1.572,1.58h26.028l2.256-5.411Z" transform="translate(-0.223 -16.954)" fill="#dedede"/>
      <path id="Trazado_1491" data-name="Trazado 1491" d="M597.438,171.744l-24.813-.02.289,1.946-.9,1.673-1.512.9,22.2.02c4.074,0,6.944-1.938,9.1-5.647a9.294,9.294,0,0,1-4.365,1.124" transform="translate(-10.938 -27.394)" fill="#dedede"/>
      <path id="Trazado_1492" data-name="Trazado 1492" d="M592.307,140.772a1.207,1.207,0,0,1-1.133-1.325,10.277,10.277,0,0,1,1.022-4.5c-3.542,1.891-6.407,5.326-6.407,9.91a1.207,1.207,0,0,0,1.133,1.325h23.15a1.2,1.2,0,0,0,1.135-1.311,10.354,10.354,0,0,0-.833-4.1Z" transform="translate(-16.631 -14.215)" fill="#dedede"/>
      <path id="Trazado_1493" data-name="Trazado 1493" d="M643.4,176.725a13.68,13.68,0,0,1-2.09-.16,8.747,8.747,0,0,1-12.053-8.152,8.8,8.8,0,0,1,.647-3.306,13.82,13.82,0,0,1,1.53-8.719,13.7,13.7,0,1,0,18.549,18.639,13.548,13.548,0,0,1-6.582,1.7" transform="translate(-30.998 -22.136)" fill="#dedede"/>
      <path id="Trazado_1494" data-name="Trazado 1494" d="M566.846,176.725a13.681,13.681,0,0,1-2.09-.16,8.747,8.747,0,0,1-12.053-8.152,8.8,8.8,0,0,1,.647-3.306,13.856,13.856,0,0,1-.161-2.105,13.711,13.711,0,0,1,1.69-6.614,13.7,13.7,0,1,0,18.548,18.639,13.545,13.545,0,0,1-6.582,1.7" transform="translate(-2.481 -22.136)" fill="#dedede"/>
      <path id="Trazado_1683" data-name="Trazado 1683" d="M0,0,.941,0,.931,6.725l-.941,0Z" transform="matrix(0.933, -0.36, 0.36, 0.933, 601.491, 138.851)" fill="#272424"/>
      <path id="Trazado_1684" data-name="Trazado 1684" d="M0,0,.941,0,.931,6.123l-.941,0Z" transform="translate(605.288 137.646) rotate(-21.121)" fill="#272424"/>
      <path id="Trazado_1495" data-name="Trazado 1495" d="M644.02,176.932a3.558,3.558,0,1,1,3.542-3.558,3.553,3.553,0,0,1-3.542,3.558m0-6.17a2.612,2.612,0,1,0,2.6,2.612,2.609,2.609,0,0,0-2.6-2.612" transform="translate(-37.004 -27.097)" fill="#272424"/>
      <path id="Trazado_1496" data-name="Trazado 1496" d="M637.735,181.338a14.2,14.2,0,1,1,14.128-14.2,14.178,14.178,0,0,1-14.128,14.2m0-27.447a13.251,13.251,0,1,0,13.187,13.25,13.233,13.233,0,0,0-13.187-13.25m0,22.525a9.275,9.275,0,1,1,9.23-9.275,9.263,9.263,0,0,1-9.23,9.275m0-17.6a8.329,8.329,0,1,0,8.288,8.329,8.315,8.315,0,0,0-8.288-8.329" transform="translate(-30.719 -20.864)" fill="#272424"/>
      <path id="Trazado_1497" data-name="Trazado 1497" d="M561.181,181.338a14.2,14.2,0,1,1,14.128-14.2,14.178,14.178,0,0,1-14.128,14.2m0-27.447a13.251,13.251,0,1,0,13.187,13.25,13.233,13.233,0,0,0-13.187-13.25m0,22.525a9.275,9.275,0,1,1,9.23-9.275,9.263,9.263,0,0,1-9.23,9.275m0-17.6a8.329,8.329,0,1,0,8.288,8.329,8.318,8.318,0,0,0-8.288-8.329" transform="translate(-2.201 -20.864)" fill="#272424"/>
      <path id="Trazado_1685" data-name="Trazado 1685" d="M0,0,6.151-.015l0,.943L0,.943Z" transform="translate(558.17 142.375) rotate(-44.382)" fill="#272424"/>
      <rect id="Rectángulo_4058" data-name="Rectángulo 4058" width="0.946" height="8.117" transform="translate(559.233 149.252) rotate(-89.726)" fill="#272424"/>
      <path id="Trazado_1498" data-name="Trazado 1498" d="M596.6,169.74l-9.65-.059.006-.946,9.647.059c6.488,0,11.523-7.515,11.523-13.979v-1.981H584.313l-3.05,3-.658-.676,3.325-3.272h24.16l.981-.216v3.143c0,6.9-5.447,14.925-12.467,14.925" transform="translate(-14.7 -20.393)" fill="#272424"/>
      <path id="Trazado_1499" data-name="Trazado 1499" d="M567.48,176.063A3.534,3.534,0,1,1,571,172.53a3.53,3.53,0,0,1-3.516,3.534m0-6.121a2.588,2.588,0,1,0,2.575,2.588,2.584,2.584,0,0,0-2.575-2.588" transform="translate(-8.501 -26.794)" fill="#272424"/>
      <path id="Trazado_1500" data-name="Trazado 1500" d="M569.215,147.425H543.188a2.051,2.051,0,0,1-2.044-2.053v-.53a2.051,2.051,0,0,1,2.044-2.053l2.768-.052a6.381,6.381,0,0,1,6.616-5.707h20.583v.946H552.571a5.416,5.416,0,0,0-5.693,5.226v.464l-3.683.069a1.108,1.108,0,0,0-1.111,1.107v.53a1.106,1.106,0,0,0,1.1,1.107h26.027Z" transform="translate(0 -14.984)" fill="#272424"/>
      <path id="Trazado_1501" data-name="Trazado 1501" d="M609.792,145.409H586.644a1.671,1.671,0,0,1-1.6-1.8,11.268,11.268,0,0,1,4.409-8.848,13.67,13.67,0,0,1,17.541-.008,11.285,11.285,0,0,1,4.408,8.87,1.664,1.664,0,0,1-1.606,1.783M598.22,132.521c-5,0-12.239,3.95-12.239,11.091,0,.41.207.851.663.851h23.149c.437,0,.664-.421.664-.837,0-4.655-4.252-11.105-12.237-11.105" transform="translate(-16.352 -12.968)" fill="#272424"/>
      <path id="Trazado_1502" data-name="Trazado 1502" d="M639.643,132.438h-3.785a5.169,5.169,0,0,1-3.257-1.16l.594-.734a4.228,4.228,0,0,0,2.664.948h3.785a.447.447,0,0,0,.446-.448v-7.607a.448.448,0,0,0-.446-.448h-3.785a4.229,4.229,0,0,0-4.168,3.513l-.926-.163a5.167,5.167,0,0,1,5.095-4.3h3.785a1.392,1.392,0,0,1,1.387,1.394v7.607a1.392,1.392,0,0,1-1.387,1.394" transform="translate(-33.385 -9.447)" fill="#272424"/>
      <rect id="Rectángulo_4059" data-name="Rectángulo 4059" width="0.941" height="9.449" transform="translate(603.171 113.069)" fill="#272424"/>
      <rect id="Rectángulo_4060" data-name="Rectángulo 4060" width="7.791" height="0.946" transform="translate(559.131 142.202)" fill="#272424"/>
      <path id="Trazado_1503" data-name="Trazado 1503" d="M593.626,167.76h-3.865v-.946h3.865a1.395,1.395,0,0,0,0-2.79h-5.671v-.946h5.671a2.341,2.341,0,0,1,0,4.681" transform="translate(-17.438 -24.608)" fill="#272424"/>
      <path id="Trazado_1504" data-name="Trazado 1504" d="M625.234,141.686l-4.187-10.892-2.874,1.427-.417-.848,3.8-1.886,4.235,11.014,2.878-.972-8.991-23.385h-8.121a1.524,1.524,0,0,0,0,3.048H617.6l2.758,7.175L615.211,129l-.427-.842,4.385-2.245-2.22-5.773h-5.4a2.47,2.47,0,0,1,0-4.94h8.767l.115.3L629.9,140.11Z" transform="translate(-25.313 -6.918)" fill="#272424"/>
      <path id="Trazado_1505" data-name="Trazado 1505" d="M553.063,116.658a1.36,1.36,0,0,1-1.357-1.364V97.223H549.35a1.36,1.36,0,0,0-1.357,1.364v22.844a1.36,1.36,0,0,0,1.357,1.364h24.341a1.36,1.36,0,0,0,1.357-1.364v-4.773Z" transform="translate(-2.551 -0.277)" fill="#dedede"/>
      <path id="Trazado_1506" data-name="Trazado 1506" d="M573.548,122.992H549a1.732,1.732,0,0,1-1.726-1.734V98.208A1.731,1.731,0,0,1,549,96.474h24.545a1.731,1.731,0,0,1,1.726,1.734v23.05a1.732,1.732,0,0,1-1.726,1.734M549,97.42a.787.787,0,0,0-.784.788v23.05a.787.787,0,0,0,.784.788h24.545a.787.787,0,0,0,.784-.788V98.208a.787.787,0,0,0-.784-.788Z" transform="translate(-2.285)" fill="#272424"/>
      <path id="Trazado_1507" data-name="Trazado 1507" d="M562.337,102.5h3.251a1.621,1.621,0,0,1,1.6,1.64v4.417h4.615a1.622,1.622,0,0,1,1.6,1.64v3.233a1.622,1.622,0,0,1-1.6,1.64h-4.615v4.706a1.621,1.621,0,0,1-1.6,1.64h-3.251a1.622,1.622,0,0,1-1.6-1.64v-4.706h-4.546a1.622,1.622,0,0,1-1.6-1.64V110.2a1.622,1.622,0,0,1,1.6-1.64h4.546v-4.417a1.622,1.622,0,0,1,1.6-1.64" transform="translate(-5.007 -2.227)" fill="#749806"/>
    </g>
  </g>
</svg>
