<svg xmlns="http://www.w3.org/2000/svg" width="24" height="24" viewBox="0 0 24 24">
  <g id="Grupo_4009" data-name="Grupo 4009" transform="translate(23815 -4396)">
    <rect id="Rectángulo_5048" data-name="Rectángulo 5048" width="24" height="24" transform="translate(-23815 4396)" fill="none"/>
    <path id="Combined-Shape" d="M8.75,1.835a.674.674,0,0,1,0,1.348H2.019a.674.674,0,0,0-.673.674V17.341a.674.674,0,0,0,.673.674H15.481a.674.674,0,0,0,.673-.674V10.6a.673.673,0,1,1,1.346,0v6.742a2.023,2.023,0,0,1-2.019,2.023H2.019A2.023,2.023,0,0,1,0,17.341V3.857A2.023,2.023,0,0,1,2.019,1.835ZM17.406,1a2.5,2.5,0,0,1,1.835.808,2.891,2.891,0,0,1,0,3.905L10.984,14.5a.639.639,0,0,1-.366.2l-3.212.489a.782.782,0,0,1-.092.006.623.623,0,0,1-.458-.2.722.722,0,0,1-.183-.585l.458-3.417a.711.711,0,0,1,.183-.39l8.257-8.786A2.5,2.5,0,0,1,17.406,1Zm0,1.382a1.252,1.252,0,0,0-.918.4l-8.1,8.623-.305,2.277,2.141-.326,8.1-8.623a1.445,1.445,0,0,0,0-1.952A1.249,1.249,0,0,0,17.406,2.382Z" transform="translate(-23813 4398)" fill="#d81e05"/>
  </g>
</svg>
