<svg xmlns="http://www.w3.org/2000/svg" width="24" height="24" viewBox="0 0 24 24">
  <g id="Grupo_4015" data-name="Grupo 4015" transform="translate(24059 22251)">
    <rect id="Rectángulo_5050" data-name="Rectángulo 5050" width="24" height="24" transform="translate(-24059 -22251)" fill="none"/>
    <path id="Combined_Shape" data-name="Combined Shape" d="M4.095,19.934a.623.623,0,0,1-.345-.56V16.25H1.875A1.877,1.877,0,0,1,0,14.375V1.875A1.877,1.877,0,0,1,1.875,0h16.25A1.877,1.877,0,0,1,20,1.875v12.5a1.877,1.877,0,0,1-1.875,1.875H9.583L4.75,19.875a.625.625,0,0,1-.655.06ZM1.25,1.875v12.5A.625.625,0,0,0,1.875,15h2.5A.625.625,0,0,1,5,15.625v2.5l4-3A.628.628,0,0,1,9.375,15h8.75a.625.625,0,0,0,.625-.625V1.875a.625.625,0,0,0-.625-.625H1.875A.625.625,0,0,0,1.25,1.875Zm7.5,10.313a.937.937,0,1,1,.937.937A.937.937,0,0,1,8.75,12.188Zm.625-2.812V9.161a1.877,1.877,0,0,1,1.25-1.768,1.873,1.873,0,0,0,.7-3.093,1.874,1.874,0,0,0-3.2,1.324.625.625,0,1,1-1.25,0,3.125,3.125,0,1,1,4.167,2.948.627.627,0,0,0-.417.59v.213a.625.625,0,0,1-1.25,0Z" transform="translate(-24057 -22249)" fill="#2d373d"/>
  </g>
</svg>
