<svg xmlns="http://www.w3.org/2000/svg" width="24" height="24" viewBox="0 0 24 24">
  <g id="Grupo_4025" data-name="Grupo 4025" transform="translate(24109 -4833)">
    <rect id="Rectángulo_5057" data-name="Rectángulo 5057" width="24" height="24" transform="translate(-24109 4833)" fill="none"/>
    <path id="Trazado_1757" data-name="Trazado 1757" d="M-91.332,106.038h-2.512v2.909h2.51v7.008a9.943,9.943,0,0,1-8.381-8.981,10.023,10.023,0,0,1,8.847-10.943A10,10,0,0,1-79.8,105.15a10.026,10.026,0,0,1-8.387,10.819V108.96c.061,0,.121-.009.181-.009.641,0,1.282,0,1.922,0,.154,0,.225-.025.249-.2.124-.882.265-1.761.4-2.642a.352.352,0,0,0-.008-.069h-2.747c0-.074-.008-.125-.008-.176,0-.577,0-1.154,0-1.731a1.419,1.419,0,0,1,1.477-1.552c.4-.017.8-.006,1.2-.008h.2a1.181,1.181,0,0,0,.016-.132q0-1.1,0-2.2c0-.076.005-.143-.1-.158a11.389,11.389,0,0,0-2.692-.149,3.494,3.494,0,0,0-2.067.868,3.442,3.442,0,0,0-1.081,2.108,7.831,7.831,0,0,0-.073,1.049c-.011.655,0,1.311,0,1.967C-91.322,105.955-91.327,105.986-91.332,106.038Z" transform="translate(-24007.24 4739.031)" fill="#526570"/>
  </g>
</svg>
