<svg xmlns="http://www.w3.org/2000/svg" width="24" height="24" viewBox="0 0 24 24">
  <g id="Grupo_3924" data-name="Grupo 3924" transform="translate(-200 -394)">
    <rect id="Rectángulo_5002" data-name="Rectángulo 5002" width="24" height="24" transform="translate(200 394)" fill="none"/>
    <g id="Icon_Insurance_Health_Health-and-dental-24" data-name="Icon/Insurance/Health/Health-and-dental-24" transform="translate(202 396)">
      <path id="Combined-Shape" d="M10,0A10,10,0,1,1,0,10,10.011,10.011,0,0,1,10,0Zm0,1.25A8.75,8.75,0,1,0,18.75,10,8.76,8.76,0,0,0,10,1.25Zm1.25,2.5A1.252,1.252,0,0,1,12.5,5V7.5H15a1.252,1.252,0,0,1,1.25,1.25v2.5A1.252,1.252,0,0,1,15,12.5H12.5V15a1.252,1.252,0,0,1-1.25,1.25H8.75A1.252,1.252,0,0,1,7.5,15V12.5H5a1.252,1.252,0,0,1-1.25-1.25V8.75A1.252,1.252,0,0,1,5,7.5H7.5V5A1.252,1.252,0,0,1,8.75,3.75Zm0,1.25H8.75V8.125a.625.625,0,0,1-.625.625H5v2.5H8.125a.625.625,0,0,1,.625.625V15h2.5V11.875a.625.625,0,0,1,.625-.625H15V8.75H11.875a.625.625,0,0,1-.625-.625Z" fill="#333"/>
    </g>
  </g>
</svg>
