<svg xmlns="http://www.w3.org/2000/svg" width="24" height="24" viewBox="0 0 24 24">
  <g id="Grupo_4021" data-name="Grupo 4021" transform="translate(23957 -4833)">
    <rect id="Rectángulo_5061" data-name="Rectángulo 5061" width="24" height="24" transform="translate(-23957 4833)" fill="none"/>
    <g id="Grupo_4019" data-name="Grupo 4019" transform="translate(-23955 4835)">
      <path id="Trazado_1461" data-name="Trazado 1461" d="M-33.166,150.945c0-.855.013-1.711,0-2.566a14.878,14.878,0,0,0-.239-3.08,5.126,5.126,0,0,0-3.768-4.03,9.652,9.652,0,0,0-2.662-.3c-1.982-.019-3.963-.027-5.945-.015a13.558,13.558,0,0,0-3,.236,5.126,5.126,0,0,0-4.022,3.775,9.713,9.713,0,0,0-.3,2.667c-.019,1.985-.027,3.971-.015,5.956a13.631,13.631,0,0,0,.236,3.007,5.128,5.128,0,0,0,3.768,4.03,9.591,9.591,0,0,0,2.643.3q2.981.028,5.963.016a14.069,14.069,0,0,0,3.02-.238,5.2,5.2,0,0,0,3.168-2.016,5.964,5.964,0,0,0,1.091-3.381c.061-1.452.072-2.906.105-4.36ZM-35,154.666a6.424,6.424,0,0,1-.312,2.054,3.227,3.227,0,0,1-2.315,2.142,6.532,6.532,0,0,1-1.4.218q-4.169.169-8.339,0a4.533,4.533,0,0,1-2.136-.558,3.185,3.185,0,0,1-1.538-2.028,6.929,6.929,0,0,1-.22-1.406q-.172-4.177,0-8.355a4.919,4.919,0,0,1,.395-1.832,3.185,3.185,0,0,1,2.189-1.866,7.339,7.339,0,0,1,1.549-.23c2.663-.1,5.328-.1,7.992-.005a5.326,5.326,0,0,1,2.029.408,3.188,3.188,0,0,1,1.862,2.193,7.422,7.422,0,0,1,.229,1.552c.054,1.33.062,2.662.086,3.869C-34.959,152.186-34.974,153.426-35,154.666Z" transform="translate(53.129 -140.946)" fill="#526570"/>
      <path id="Trazado_1462" data-name="Trazado 1462" d="M84.677,273.614a5.137,5.137,0,1,0,5.116,5.147A5.122,5.122,0,0,0,84.677,273.614Zm-.019,8.472A3.336,3.336,0,1,1,88,278.759,3.34,3.34,0,0,1,84.658,282.086Z" transform="translate(-74.685 -268.75)" fill="#526570"/>
      <path id="Trazado_1463" data-name="Trazado 1463" d="M333.842,235.111a1.2,1.2,0,1,0,1.2,1.209A1.22,1.22,0,0,0,333.842,235.111Z" transform="translate(-318.522 -231.659)" fill="#526570"/>
    </g>
  </g>
</svg>
