<svg xmlns="http://www.w3.org/2000/svg" width="24" height="24" viewBox="0 0 24 24">
  <g id="Grupo_4023" data-name="Grupo 4023" transform="translate(24033 -4833)">
    <rect id="Rectángulo_5060" data-name="Rectángulo 5060" width="24" height="24" transform="translate(-24033 4833)" fill="none"/>
    <g id="Grupo_4020" data-name="Grupo 4020" transform="translate(-24031 4836)">
      <path id="Trazado_1466" data-name="Trazado 1466" d="M135.065,301.851a7.709,7.709,0,0,0-.241-2.023,4.464,4.464,0,0,0-1.814-2.672,4.983,4.983,0,0,0-2.718-.794,4.345,4.345,0,0,0-3.867,1.78c-.035.047-.073.092-.109.138l-.049-.01v-1.612h-4.278c0,.08,0,.145,0,.211.008.5.024,1,.023,1.505q-.011,5.09-.027,10.179c0,.23,0,.231.248.231h4.033v-.251q0-3.217,0-6.434c0-.179.009-.358.026-.537a2.284,2.284,0,0,1,2.179-2.014,1.922,1.922,0,0,1,2.088,1.3,4.09,4.09,0,0,1,.221,1.41q0,3.145,0,6.29v.232h.206c1.288,0,2.576,0,3.864,0,.187,0,.216-.062.216-.216Q135.062,305.211,135.065,301.851Z" transform="translate(-115.068 -290.787)" fill="#526570"/>
      <path id="Trazado_1467" data-name="Trazado 1467" d="M-86.077,305.959c-1.287,0-2.575,0-3.862,0-.068,0-.135.008-.209.012,0,.064-.01.111-.01.158q0,5.893,0,11.786c0,.156.058.187.209.187,1.11-.005,2.22,0,3.329,0h.736c.006-.072.014-.13.014-.188q0-5.884,0-11.768C-85.869,305.991-85.925,305.958-86.077,305.959Z" transform="translate(90.418 -300.107)" fill="#526570"/>
      <path id="Trazado_1468" data-name="Trazado 1468" d="M-94.36,106.078a2.772,2.772,0,0,0-2.213-.359,2.046,2.046,0,0,0-1.518,2.919,2.27,2.27,0,0,0,2.121,1.2,3.157,3.157,0,0,0,1.19-.216,1.947,1.947,0,0,0,1.28-1.63A1.932,1.932,0,0,0-94.36,106.078Z" transform="translate(98.311 -105.638)" fill="#526570"/>
    </g>
  </g>
</svg>
