<svg xmlns="http://www.w3.org/2000/svg" width="24" height="24" viewBox="0 0 24 24">
  <g id="Grupo_4013" data-name="Grupo 4013" transform="translate(23812 -4662)">
    <rect id="Rectángulo_5051" data-name="Rectángulo 5051" width="24" height="24" transform="translate(-23812 4662)" fill="none"/>
    <g id="Icon_Nav_Location-24" data-name="Icon/Nav/Location-24" transform="translate(-23810 4666)">
      <path id="Combined-Shape" d="M9.8,0a5.662,5.662,0,0,1,5.8,5.5c0,2.668-1.68,4.311-3.163,5.761-.2.2-.4.391-.587.581a11.254,11.254,0,0,0-1.537,3.77.534.534,0,0,1-1.027,0,11.252,11.252,0,0,0-1.533-3.765c-.188-.191-.385-.383-.584-.577C5.684,9.817,4,8.172,4,5.5A5.662,5.662,0,0,1,9.8,0Zm0,1A4.633,4.633,0,0,0,5.055,5.5c0,2.267,1.459,3.693,2.871,5.072.208.2.407.4.6.591A7.222,7.222,0,0,1,9.8,13.649a7.252,7.252,0,0,1,1.279-2.49c.191-.195.391-.389.593-.588,1.416-1.383,2.873-2.808,2.873-5.071A4.633,4.633,0,0,0,9.8,1Zm0,2.333a2.364,2.364,0,0,1,2.388,2.333,2.389,2.389,0,0,1-4.776,0A2.364,2.364,0,0,1,9.8,3.333Zm0,.933a1.4,1.4,0,1,0,1.433,1.4A1.418,1.418,0,0,0,9.8,4.267Z" transform="translate(0)" fill="#526570"/>
    </g>
  </g>
</svg>
