<svg xmlns="http://www.w3.org/2000/svg" width="24" height="24" viewBox="0 0 24 24">
  <g id="Grupo_4010" data-name="Grupo 4010" transform="translate(16291 -3852)">
    <rect id="Rectángulo_5051" data-name="Rectángulo 5051" width="24" height="24" transform="translate(-16291 3852)" fill="none"/>
    <g id="Icon_General_User_Log-out-24" data-name="Icon/General/User/Log-out-24" transform="translate(-16289 3854)">
      <path id="Combined-Shape" d="M8.916,1a8.751,8.751,0,0,1,3.89.912,8.9,8.9,0,0,1,3.957,3.852.6.6,0,0,1-.244.812.589.589,0,0,1-.8-.246,7.711,7.711,0,0,0-3.43-3.339,7.591,7.591,0,0,0-5.9-.36,7.691,7.691,0,0,0-4.42,3.958,7.822,7.822,0,0,0-.356,5.958,7.721,7.721,0,0,0,3.917,4.467A7.563,7.563,0,0,0,8.9,17.8a7.768,7.768,0,0,0,6.952-4.384.6.6,0,0,1,.533-.338.584.584,0,0,1,.26.061.6.6,0,0,1,.274.8A8.959,8.959,0,0,1,8.9,19a8.733,8.733,0,0,1-3.884-.907A8.907,8.907,0,0,1,.492,12.939,9.026,9.026,0,0,1,.9,6.064,8.9,8.9,0,0,1,8.916,1Zm.327,5.478a.6.6,0,0,1,.422.172.578.578,0,0,1,0,.829L7.7,9.413H18.8a.587.587,0,1,1,0,1.174H7.7l1.968,1.933a.581.581,0,0,1,0,.83.6.6,0,0,1-.844,0L5.834,10.415a.6.6,0,0,1-.131-.192A.121.121,0,0,1,5.7,10.2.577.577,0,0,1,5.658,10,.566.566,0,0,1,5.7,9.793a.246.246,0,0,1,.012-.029.551.551,0,0,1,.125-.18L8.821,6.65A.6.6,0,0,1,9.243,6.478Z" transform="translate(0)" fill="#526570"/>
    </g>
  </g>
</svg>
