<svg xmlns="http://www.w3.org/2000/svg" width="24" height="24" viewBox="0 0 24 24">
  <g id="Grupo_4156" data-name="Grupo 4156" transform="translate(-12999 8335)">
    <rect id="Rectángulo_5082" data-name="Rectángulo 5082" width="24" height="24" transform="translate(12999 -8335)" fill="none"/>
    <g id="Icon_General_Pay-and-security_Pay-by-card-24" data-name="Icon/General/Pay-and-security/Pay-by-card-24" transform="translate(13001 -8333.75)">
      <path id="Combined-Shape" d="M18.125,3.75A1.894,1.894,0,0,1,20,5.659v7a1.894,1.894,0,0,1-1.875,1.909H16.707c-.752,2.112-2.8,3.182-6.082,3.182a40.943,40.943,0,0,1-7.665-.436,11.77,11.77,0,0,0-2.335-.2.636.636,0,0,1,0-1.273,12.72,12.72,0,0,1,2.127.149l.273.044.137.023a39.89,39.89,0,0,0,7.463.42c2.477,0,4.027-.625,4.718-1.909H10A.636.636,0,0,1,10,13.3h8.125a.631.631,0,0,0,.625-.636V8.2H11c-.012.07-.026.139-.043.21A1.43,1.43,0,0,1,9.775,9.5l-1.56.232c-.059.007-.072.024-.079.032a.074.074,0,0,0-.017.057c0,.014.007.066.007.092v2.17a.66.66,0,0,1-.014.134,1.82,1.82,0,0,1-.562.981L5.79,14.613a.617.617,0,0,1-.878-.106.641.641,0,0,1-.13-.468.634.634,0,0,1,.233-.425l1.732-1.391A.527.527,0,0,0,6.877,12l0-2.072a1.342,1.342,0,0,1,.293-.972,1.311,1.311,0,0,1,.895-.489L9.6,8.243a.176.176,0,0,0,.15-.136c.085-.347.023-.453.019-.457a.158.158,0,0,0-.091-.037l-2.258-.46a.558.558,0,0,1-.083-.017L6.81,7.029,3.692,10.155a1.413,1.413,0,0,1-1.081.5H.625a.636.636,0,0,1,0-1.273H2.61a.173.173,0,0,0,.138-.067.622.622,0,0,1,.043-.049L6.168,5.884A.622.622,0,0,1,6.607,5.7a.65.65,0,0,1,.122.012l.146.03V5.659A1.894,1.894,0,0,1,8.75,3.75Zm-1.25,5.727a.636.636,0,0,1,0,1.273h-1.25a.636.636,0,0,1,0-1.273Zm1.25-4.455H8.75a.631.631,0,0,0-.625.636V6l1.8.366a1.345,1.345,0,0,1,.878.568H18.75V5.659A.631.631,0,0,0,18.125,5.023Z" fill="#526570"/>
    </g>
  </g>
</svg>
