<svg xmlns="http://www.w3.org/2000/svg" width="24" height="24" viewBox="0 0 24 24">
  <g id="Grupo_4010" data-name="Grupo 4010" transform="translate(23882 -4698)">
    <rect id="Rectángulo_5048" data-name="Rectángulo 5048" width="24" height="24" transform="translate(-23882 4698)" fill="none"/>
    <g id="Icon_General_Documents_PDF-24" data-name="Icon/General/Documents/PDF-24" transform="translate(-23878 4702)">
      <path id="Combined-Shape" d="M8.586,0A1.488,1.488,0,0,1,9.647.44l3.914,3.914A1.49,1.49,0,0,1,14,5.415V8.5a.5.5,0,0,1-1,0V6H9.5A1.5,1.5,0,0,1,8,4.5V1H1.5a.5.5,0,0,0-.5.5v13a.5.5,0,0,0,.5.5h2a.5.5,0,1,1,0,1h-2A1.5,1.5,0,0,1,0,14.5V1.5A1.5,1.5,0,0,1,1.5,0ZM5.78,10A2.121,2.121,0,0,1,8,12a2.121,2.121,0,0,1-2.22,2h0v1.5a.558.558,0,0,1-1.11,0v-5a.53.53,0,0,1,.555-.5Zm3.442,0A2.653,2.653,0,0,1,12,12.5v1A2.653,2.653,0,0,1,9.222,16a.53.53,0,0,1-.556-.5v-5A.53.53,0,0,1,9.222,10Zm6.333,0a.5.5,0,0,1,0,1h-.889a.475.475,0,0,0-.444.5V13h.889a.5.5,0,0,1,0,1h-.889v1.5a.448.448,0,1,1-.889,0v-4A1.425,1.425,0,0,1,14.667,10ZM9.778,11.086v3.828A1.529,1.529,0,0,0,10.889,13.5v-1A1.529,1.529,0,0,0,9.778,11.086ZM5.78,11h0v2h0a1.005,1.005,0,1,0,0-2ZM9,1.207V4.5a.5.5,0,0,0,.5.5h3.293Z" fill="#526570"/>
    </g>
  </g>
</svg>
