<svg xmlns="http://www.w3.org/2000/svg" width="24" height="24" viewBox="0 0 24 24">
  <g id="Grupo_4011" data-name="Grupo 4011" transform="translate(23812 -4697)">
    <rect id="Rectángulo_5049" data-name="Rectángulo 5049" width="24" height="24" transform="translate(-23812 4697)" fill="none"/>
    <g id="Icon_General_User_Phone-24" data-name="Icon/General/User/Phone-24" transform="translate(-23808 4701)">
      <path id="Shape" d="M12.022,16a4.2,4.2,0,0,1-2.254-.661l-.019-.012A33.647,33.647,0,0,1,.67,6.249a4.174,4.174,0,0,1,.56-5.228L1.746.505a1.733,1.733,0,0,1,2.446,0L6.366,2.681a1.73,1.73,0,0,1,0,2.444.731.731,0,0,0,0,1.032L9.853,9.644a.73.73,0,0,0,1.022-.009,1.733,1.733,0,0,1,2.446,0l2.174,2.172a1.731,1.731,0,0,1,0,2.445l-.516.516A4.16,4.16,0,0,1,12.022,16ZM10.3,14.494a3.229,3.229,0,0,0,1.722.5,3.162,3.162,0,0,0,2.248-.938l.516-.516a.732.732,0,0,0,0-1.032l-2.173-2.172a.732.732,0,0,0-1.032,0,1.73,1.73,0,0,1-2.438.006L5.659,6.863a1.731,1.731,0,0,1,0-2.445.73.73,0,0,0,0-1.03L5.641,3.37,3.484,1.211a.732.732,0,0,0-1.032,0l-.516.515A3.169,3.169,0,0,0,1.5,5.693a32.636,32.636,0,0,0,8.8,8.8Z" fill="#526570"/>
    </g>
  </g>
</svg>
