<svg xmlns="http://www.w3.org/2000/svg" width="81.5" height="80" viewBox="0 0 81.5 80">
  <g id="Grupo_4017" data-name="Grupo 4017" transform="translate(24033.75 22849)">
    <rect id="Rectángulo_5051" data-name="Rectángulo 5051" width="80" height="80" transform="translate(-24033 -22849)" fill="none"/>
    <g id="Grupo_4016" data-name="Grupo 4016" transform="translate(-24033 -22846)">
      <path id="Trazado_1565" data-name="Trazado 1565" d="M339.553,251.332a3.145,3.145,0,0,1,.4-1.511,3.064,3.064,0,0,0-.939-.161,3.153,3.153,0,0,0,0,6.3,3.1,3.1,0,0,0,2.722-1.641,3.139,3.139,0,0,1-2.181-2.991" transform="translate(-328.148 -249.66)" fill="#dedede"/>
      <path id="Trazado_1566" data-name="Trazado 1566" d="M365.509,251.332a3.136,3.136,0,0,1,.4-1.511,3.068,3.068,0,0,0-.939-.161,3.153,3.153,0,0,0,0,6.3,3.1,3.1,0,0,0,2.722-1.641,3.138,3.138,0,0,1-2.18-2.991" transform="translate(-335.098 -249.66)" fill="#dedede"/>
      <path id="Trazado_1567" data-name="Trazado 1567" d="M422.2,336.532a10.019,10.019,0,0,1-5.421-18.364,10,10,0,0,0,.653,19.97,9.766,9.766,0,0,0,5.423-1.64c-.217.015-.434.033-.655.033" transform="translate(-347.333 -267.472)" fill="#dedede"/>
      <path id="Trazado_1568" data-name="Trazado 1568" d="M374.3,302.208c.19,0,.375-.009.563-.012a27.467,27.467,0,0,0,2.924-6.6,13.931,13.931,0,0,1-5.514,6.554c.668.035,1.341.058,2.026.058" transform="translate(-337.89 -261.603)" fill="#dedede"/>
      <path id="Trazado_1569" data-name="Trazado 1569" d="M351.557,305.322a35.489,35.489,0,0,1-5.224.375c-8.769,0-16.187-2.811-19.143-9.582,2.931,9.176,9.95,15.922,18.391,16.289a17.783,17.783,0,0,0,11.916-4.035,18.283,18.283,0,0,1-5.941-3.047" transform="translate(-325.818 -261.738)" fill="#dedede"/>
      <path id="Trazado_1570" data-name="Trazado 1570" d="M333.865,253.92h0c-4.722,0-8.549,4.487-8.549,10.023V276.7c0,13.107,8.694,24.27,19.867,24.735,11.73.489,21.371-10.513,21.371-24.156V263.943c0-5.536-3.828-10.023-8.549-10.023" transform="translate(-325.316 -250.768)" fill="none" stroke="#333" stroke-linejoin="round" stroke-width="1.5"/>
      <path id="Trazado_1571" data-name="Trazado 1571" d="M353.539,321.707a15.022,15.022,0,0,0,14.908,13.9h1.429a15.035,15.035,0,0,0,14.955-15.115V304.764a9.073,9.073,0,1,1,18.145,0v7.5" transform="translate(-332.873 -261.603)" fill="none" stroke="#333" stroke-linejoin="round" stroke-width="1.5"/>
      <path id="Trazado_1572" data-name="Trazado 1572" d="M427.334,328.124a9.9,9.9,0,1,1-9.9-10A9.951,9.951,0,0,1,427.334,328.124Z" transform="translate(-347.333 -267.46)" fill="none" stroke="#333" stroke-linejoin="round" stroke-width="1.5"/>
      <path id="Trazado_1573" data-name="Trazado 1573" d="M416.55,330.467a3.3,3.3,0,1,0,3.3-3.334,3.317,3.317,0,0,0-3.3,3.334" transform="translate(-349.746 -269.803)" fill="#749806"/>
      <path id="Trazado_1574" data-name="Trazado 1574" d="M342.2,252.812a3.12,3.12,0,1,1-3.12-3.152A3.136,3.136,0,0,1,342.2,252.812Z" transform="translate(-328.167 -249.66)" fill="none" stroke="#333" stroke-linejoin="round" stroke-width="1.5"/>
      <path id="Trazado_1575" data-name="Trazado 1575" d="M368.087,252.812a3.119,3.119,0,1,1-3.119-3.152A3.136,3.136,0,0,1,368.087,252.812Z" transform="translate(-335.098 -249.66)" fill="none" stroke="#333" stroke-linejoin="round" stroke-width="1.5"/>
      <path id="Trazado_1576" data-name="Trazado 1576" d="M366.586,286.221c0,11.508-9.231,16.019-20.619,16.019s-20.528-4.51-20.528-16.019" transform="translate(-325.349 -259.166)" fill="none" stroke="#333" stroke-linejoin="round" stroke-width="1.5"/>
      <path id="Trazado_1577" data-name="Trazado 1577" d="M352.123,329.115h0a3.714,3.714,0,0,1-3.694-3.733v-3.733a20.874,20.874,0,0,0,3.694.394,17.278,17.278,0,0,0,3.694-.394v3.733A3.714,3.714,0,0,1,352.123,329.115Z" transform="translate(-331.505 -268.377)" fill="none" stroke="#333" stroke-linejoin="round" stroke-width="1.5"/>
    </g>
  </g>
</svg>
