<svg xmlns="http://www.w3.org/2000/svg" width="24" height="24" viewBox="0 0 24 24">
  <g id="Grupo_4024" data-name="Grupo 4024" transform="translate(24070 -4833)">
    <rect id="Rectángulo_5058" data-name="Rectángulo 5058" width="24" height="24" transform="translate(-24070 4833)" fill="none"/>
    <path id="Trazado_1756" data-name="Trazado 1756" d="M-80.53,156.133a8.9,8.9,0,0,0,2.219-.539c-.055.081-.108.165-.167.243a8.156,8.156,0,0,1-1.718,1.7.244.244,0,0,0-.114.23,11.525,11.525,0,0,1-1.331,5.689,11.411,11.411,0,0,1-3.285,3.906,11.094,11.094,0,0,1-4.295,1.975,12.408,12.408,0,0,1-4.52.183,11.709,11.709,0,0,1-4.446-1.587c-.033-.02-.061-.047-.124-.1a8.347,8.347,0,0,0,6-1.663,4.318,4.318,0,0,1-2.34-.828,3.957,3.957,0,0,1-1.443-1.968c.312.015.6.047.893.037a5.324,5.324,0,0,0,.875-.121,4.315,4.315,0,0,1-2.321-1.455,3.957,3.957,0,0,1-.906-2.564,4.03,4.03,0,0,0,1.8.477,4.094,4.094,0,0,1-1.659-2.451,3.87,3.87,0,0,1,.448-2.909,11.9,11.9,0,0,0,8.489,4.217c-.028-.191-.058-.355-.075-.521a4.071,4.071,0,0,1,3.5-4.4,4.084,4.084,0,0,1,3.507,1.123.24.24,0,0,0,.246.075,8.369,8.369,0,0,0,2.321-.864c.027-.015.055-.03.083-.042.008,0,.019,0,.054,0A4.2,4.2,0,0,1-80.53,156.133Z" transform="translate(-23969.689 4683.357)" fill="#526570"/>
  </g>
</svg>
