<svg xmlns="http://www.w3.org/2000/svg" width="80" height="81.5" viewBox="0 0 80 81.5">
  <g id="Grupo_4023" data-name="Grupo 4023" transform="translate(24048 22673.75)">
    <rect id="Rectángulo_5053" data-name="Rectángulo 5053" width="80" height="80" transform="translate(-24048 -22673)" fill="none"/>
    <g id="Grupo_4022" data-name="Grupo 4022" transform="translate(-24043 -22673)">
      <path id="Trazado_1699" data-name="Trazado 1699" d="M1389.129,667.314V665.9h-7.217v-4.421a7.145,7.145,0,0,0-7.066-7.222V637a6.869,6.869,0,0,1,1.033-3.611h-.784a6.741,6.741,0,0,0-6.666,6.814v28.907h21.022Z" transform="translate(-1368.428 -590.708)" fill="#dddedd"/>
      <path id="Trazado_1700" data-name="Trazado 1700" d="M1435.739,657.755c0-3.043,2.959-5.51,6.611-5.51h-6.46c-3.651,0-6.611,2.466-6.611,5.51s2.959,5.51,6.611,5.51h6.46c-3.651,0-6.611-2.467-6.611-5.51" transform="translate(-1381.649 -594.48)" fill="#dddedd"/>
      <path id="Trazado_1701" data-name="Trazado 1701" d="M1433.5,671.693c0-3.043,2.96-5.51,6.611-5.51h-6.46c-3.651,0-6.611,2.466-6.611,5.51s2.96,5.51,6.611,5.51h6.46c-3.651,0-6.611-2.466-6.611-5.51" transform="translate(-1381.163 -597.267)" fill="#dddedd"/>
      <path id="Trazado_1702" data-name="Trazado 1702" d="M1435.739,630.208h0c0-3.043,2.959-5.51,6.611-5.51h-6.46c-3.651,0-6.611,2.466-6.611,5.51s2.959,5.51,6.611,5.51h6.46c-3.651,0-6.611-2.467-6.611-5.51" transform="translate(-1381.649 -588.97)" fill="#dddedd"/>
      <path id="Trazado_1703" data-name="Trazado 1703" d="M1437.98,643.981c0-3.043,2.959-5.51,6.611-5.51h-6.46c-3.651,0-6.611,2.466-6.611,5.51s2.959,5.51,6.611,5.51h6.46c-3.652,0-6.611-2.467-6.611-5.51" transform="translate(-1382.136 -591.725)" fill="#dddedd"/>
      <path id="Trazado_1704" data-name="Trazado 1704" d="M1417.1,665.672a4.1,4.1,0,1,1-4.1-4.19,4.146,4.146,0,0,1,4.1,4.19" transform="translate(-1377.222 -596.327)" fill="#dddedd"/>
      <path id="Trazado_1705" data-name="Trazado 1705" d="M1422.956,673.669a7.3,7.3,0,0,1-2.523-3.2H1406a5.533,5.533,0,0,1-5.456-5.575v-8.7h-11.161a5.666,5.666,0,0,1,.5.864,27.457,27.457,0,0,1,2.277,6.884c.331,1.95.525,3.914.939,5.85a9.031,9.031,0,0,1-.023,3.875Z" transform="translate(-1372.982 -595.27)" fill="#dddedd"/>
      <path id="Trazado_1706" data-name="Trazado 1706" d="M1436.8,652.327h6.677c3.651,0,6.611,2.466,6.611,5.51s-2.96,5.509-6.611,5.509H1436.8c-3.651,0-6.611-2.466-6.611-5.509S1433.153,652.327,1436.8,652.327Z" transform="translate(-1381.848 -594.496)" fill="none" stroke="#272425" stroke-linecap="round" stroke-miterlimit="10" stroke-width="1.5"/>
      <path id="Trazado_1707" data-name="Trazado 1707" d="M1434.564,666.265h6.677c3.651,0,6.612,2.466,6.612,5.51s-2.961,5.509-6.612,5.509h-6.677c-3.651,0-6.611-2.466-6.611-5.509S1430.913,666.265,1434.564,666.265Z" transform="translate(-1381.361 -597.284)" fill="none" stroke="#272425" stroke-linecap="round" stroke-miterlimit="10" stroke-width="1.5"/>
      <path id="Trazado_1708" data-name="Trazado 1708" d="M1380.021,622.717V584.953a4.862,4.862,0,0,1,4.809-4.914h41.2a4.862,4.862,0,0,1,4.808,4.914v30.813" transform="translate(-1370.947 -580.039)" fill="none" stroke="#272425" stroke-linecap="round" stroke-miterlimit="10" stroke-width="1.5"/>
      <path id="Trazado_1709" data-name="Trazado 1709" d="M1416.214,668.67h-27.085v-3.554c0-11.053-6.469-15.986-9.1-17.533a.306.306,0,0,1,.151-.57h5.722a6.816,6.816,0,0,0,0-13.628H1375.1a6.742,6.742,0,0,0-6.667,6.814v28.907" transform="translate(-1368.428 -590.708)" fill="none" stroke="#272425" stroke-linecap="round" stroke-miterlimit="10" stroke-width="1.5"/>
      <line id="Línea_9" data-name="Línea 9" x1="30.839" transform="translate(16.512 61.438)" fill="none" stroke="#272425" stroke-linecap="round" stroke-miterlimit="10" stroke-width="1.5"/>
      <path id="Trazado_1710" data-name="Trazado 1710" d="M1417.1,665.672a4.1,4.1,0,1,1-4.1-4.19A4.146,4.146,0,0,1,1417.1,665.672Z" transform="translate(-1378.222 -596.327)" fill="none" stroke="#272425" stroke-linecap="round" stroke-miterlimit="10" stroke-width="1.5"/>
      <path id="Trazado_1711" data-name="Trazado 1711" d="M1436.8,624.78h6.677c3.651,0,6.611,2.466,6.611,5.51s-2.96,5.509-6.611,5.509H1436.8c-3.651,0-6.611-2.466-6.611-5.509S1433.153,624.78,1436.8,624.78Z" transform="translate(-1381.848 -588.987)" fill="none" stroke="#272425" stroke-linecap="round" stroke-miterlimit="10" stroke-width="1.5"/>
      <path id="Trazado_1712" data-name="Trazado 1712" d="M1439.047,638.554h6.676c3.652,0,6.612,2.466,6.612,5.51s-2.96,5.509-6.612,5.509h-6.676c-3.651,0-6.611-2.466-6.611-5.509S1435.4,638.554,1439.047,638.554Z" transform="translate(-1382.335 -591.742)" fill="none" stroke="#272425" stroke-linecap="round" stroke-miterlimit="10" stroke-width="1.5"/>
      <path id="Trazado_1713" data-name="Trazado 1713" d="M1409.287,602.356h3.694a1.842,1.842,0,0,1,1.822,1.862v5.017h5.244a1.842,1.842,0,0,1,1.822,1.862v3.673a1.842,1.842,0,0,1-1.822,1.862H1414.8v5.344a1.842,1.842,0,0,1-1.822,1.862h-3.694a1.842,1.842,0,0,1-1.822-1.862v-5.344H1402.3a1.842,1.842,0,0,1-1.822-1.862V611.1a1.842,1.842,0,0,1,1.822-1.862h5.168v-5.017a1.842,1.842,0,0,1,1.822-1.862" transform="translate(-1376.391 -584.502)" fill="#749806"/>
    </g>
  </g>
</svg>
