<svg xmlns="http://www.w3.org/2000/svg" width="24" height="24" viewBox="0 0 24 24">
  <g id="Grupo_4161" data-name="Grupo 4161" transform="translate(21815 21664)">
    <rect id="Rectángulo_5085" data-name="Rectángulo 5085" width="24" height="24" transform="translate(-21815 -21664)" fill="none"/>
    <g id="Grupo_4160" data-name="Grupo 4160" transform="translate(-21008.895 -21684.611)">
      <path id="Trazado_1744" data-name="Trazado 1744" d="M-785.111,32.613a8.841,8.841,0,0,1-2.7,6.43,8.771,8.771,0,0,1-4.37,2.356,8.867,8.867,0,0,1-3.643.042,9.119,9.119,0,0,1-2.948-1.137.256.256,0,0,0-.192-.02q-1.814.642-3.624,1.3A.362.362,0,0,1-803,41.5a.357.357,0,0,1-.076-.413c.443-1.139.881-2.28,1.327-3.418a.365.365,0,0,0-.033-.363,8.726,8.726,0,0,1-1.3-4.054,8.823,8.823,0,0,1,2.237-6.594,8.616,8.616,0,0,1,4.609-2.778,8.828,8.828,0,0,1,7.357,1.416,8.722,8.722,0,0,1,2.97,3.6,9.15,9.15,0,0,1,.791,3.129C-785.1,32.219-785.111,32.417-785.111,32.613Zm-16.976,8c.071-.022.107-.032.141-.044.97-.347,1.941-.692,2.91-1.043a.519.519,0,0,1,.492.044,8.152,8.152,0,0,0,5.648,1.212,7.969,7.969,0,0,0,3.85-1.635,8.117,8.117,0,0,0,3.143-5.5,8.032,8.032,0,0,0-.668-4.431,8.1,8.1,0,0,0-2.613-3.235,8.13,8.13,0,0,0-4.261-1.6,8.11,8.11,0,0,0-4.572.96,8.131,8.131,0,0,0-3.267,3.188,8.166,8.166,0,0,0-1.031,3.171,7.948,7.948,0,0,0,.569,4.033A15.081,15.081,0,0,0-801,37.148a.524.524,0,0,1,.056.489c-.371.941-.731,1.886-1.094,2.83C-802.056,40.5-802.065,40.543-802.087,40.613Z" transform="translate(0 0)" fill="#526570" stroke="#526570" stroke-width="0.15"/>
      <path id="Trazado_1745" data-name="Trazado 1745" d="M-640.825,183.611h.338a.388.388,0,0,1,.371.231c.228.457.447.919.689,1.368a1.058,1.058,0,0,1-.027,1.1,6.026,6.026,0,0,1-.494.68.181.181,0,0,0-.038.211,4.159,4.159,0,0,0,2.324,2.319.169.169,0,0,0,.208-.051,2.332,2.332,0,0,1,1.049-.628.837.837,0,0,1,.576.052c.513.252,1.027.5,1.531.771a.408.408,0,0,1,.2.279,2.785,2.785,0,0,1-.093,1.194,2.254,2.254,0,0,1-1.8,1.444,2.682,2.682,0,0,1-1.517-.261,10.072,10.072,0,0,1-3.174-2.042,9.707,9.707,0,0,1-1.842-2.64,5,5,0,0,1-.539-1.531,2.274,2.274,0,0,1,1.446-2.387A1.941,1.941,0,0,1-640.825,183.611Zm6.006,6.835c.057-.18-.059-.273-.24-.353-.316-.141-.628-.3-.929-.466a.387.387,0,0,0-.458.007c-.243.18-.48.371-.708.571a.424.424,0,0,1-.458.118,4.947,4.947,0,0,1-3.152-3.085.518.518,0,0,1,.137-.615,5.358,5.358,0,0,0,.548-.723.316.316,0,0,0,.027-.263c-.19-.407-.4-.807-.6-1.207-.017-.033-.056-.077-.086-.078a1.945,1.945,0,0,0-.475.015,1.519,1.519,0,0,0-1.08,1.833,7.072,7.072,0,0,0,.783,1.751,7.612,7.612,0,0,0,2.127,2.458,10.145,10.145,0,0,0,2.367,1.306,1.831,1.831,0,0,0,.976.13A1.475,1.475,0,0,0-634.819,190.446Z" transform="translate(-155.524 -155.495)" fill="#526570" stroke="#526570" stroke-width="0.15"/>
    </g>
  </g>
</svg>
