<svg xmlns="http://www.w3.org/2000/svg" width="24" height="24" viewBox="0 0 24 24">
  <g id="Grupo_4015" data-name="Grupo 4015" transform="translate(-101 -2.613)">
    <path id="Unión_2" data-name="Unión 2" d="M4.569,19.363,1.147,20.455l.609-3.97A10.482,10.482,0,0,1,0,10.667,10.763,10.763,0,0,1,10.856,0,10.763,10.763,0,0,1,21.713,10.667,10.763,10.763,0,0,1,10.856,21.333,10.938,10.938,0,0,1,4.569,19.363Z" transform="translate(102.357 3.947)" fill="#1ad03f"/>
    <g id="Grupo_14" data-name="Grupo 14" transform="translate(101 2.614)">
      <path id="Trazado_226" data-name="Trazado 226" d="M287.924,844.939c.135-.5.259-.956.385-1.415.416-1.511.836-3.021,1.244-4.535a.56.56,0,0,0-.049-.378,11.767,11.767,0,0,1-1.472-6.377,11.946,11.946,0,1,1,17.338,11.213,11.771,11.771,0,0,1-10.931-.04.633.633,0,0,0-.4-.042c-1.975.506-3.946,1.024-5.919,1.538C288.072,844.916,288.023,844.922,287.924,844.939Zm2.87-2.828c.1-.016.148-.02.195-.032,1.107-.289,2.215-.576,3.321-.872a.517.517,0,0,1,.443.061,9.713,9.713,0,0,0,3.851,1.375,9.925,9.925,0,0,0,11-12.157,9.9,9.9,0,0,0-11.169-7.416,9.937,9.937,0,0,0-8.172,11.86,9.168,9.168,0,0,0,1.384,3.315.541.541,0,0,1,.078.5c-.2.677-.38,1.359-.567,2.039C291.038,841.211,290.922,841.642,290.794,842.111Z" transform="translate(-287.924 -820.939)" fill="#fff"/>
      <path id="Trazado_227" data-name="Trazado 227" d="M428.991,970.343c.513-.118.766.2.948.672.267.7.569,1.384.861,2.073a.547.547,0,0,1-.02.552c-.227.327-.46.651-.716.955-.237.282-.267.384-.077.7a8.1,8.1,0,0,0,4.1,3.486.422.422,0,0,0,.572-.138q.468-.558.917-1.13c.186-.236.317-.309.59-.185q1.287.587,2.554,1.217a.412.412,0,0,1,.18.308,2.254,2.254,0,0,1-.947,2.076,3.521,3.521,0,0,1-3.051.477,11.8,11.8,0,0,1-6.445-4.512,9.125,9.125,0,0,1-1.4-2.316,3.475,3.475,0,0,1,.136-3.035,4.962,4.962,0,0,1,.727-.919A1.211,1.211,0,0,1,428.991,970.343Z" transform="translate(-420.809 -963.926)" fill="#fff"/>
    </g>
  </g>
</svg>
