<svg xmlns="http://www.w3.org/2000/svg" width="24" height="24" viewBox="0 0 24 24">
  <g id="Grupo_4022" data-name="Grupo 4022" transform="translate(23994 -4833)">
    <rect id="Rectángulo_5059" data-name="Rectángulo 5059" width="24" height="24" transform="translate(-23994 4833)" fill="none"/>
    <path id="Trazado_1755" data-name="Trazado 1755" d="M-90.314,189.188c1.844.054,3.369.079,4.893.151.9.043,1.806.139,2.705.251a2.505,2.505,0,0,1,2.2,1.887,8.626,8.626,0,0,1,.3,1.686,39.67,39.67,0,0,1,.1,6.845,23.517,23.517,0,0,1-.293,2.5,2.551,2.551,0,0,1-2.037,2.251,12.871,12.871,0,0,1-1.781.234,84.356,84.356,0,0,1-9.207.124c-1.112-.045-2.224-.124-3.334-.224a4.433,4.433,0,0,1-1.281-.281,2.742,2.742,0,0,1-1.615-2.26,27.317,27.317,0,0,1-.308-3.4,37.255,37.255,0,0,1,.059-4.538,24.322,24.322,0,0,1,.294-2.519,2.552,2.552,0,0,1,2.037-2.251,11.264,11.264,0,0,1,1.765-.231C-93.875,189.319-91.935,189.253-90.314,189.188ZM-92,200.614l5.179-3.411L-92,193.793Z" transform="translate(-23891.988 4647.812)" fill="#526570"/>
  </g>
</svg>
