<svg xmlns="http://www.w3.org/2000/svg" width="37.937" height="37.937" viewBox="0 0 37.937 37.937"><defs><style>.a,.d{fill:none;}.a{stroke:#ba3126;stroke-width:0.6px;}.b{fill:#ba3126;}.c{stroke:none;}</style></defs><g transform="translate(-810 -301)"><g transform="translate(810 301)"><g class="a" transform="translate(0)"><circle class="c" cx="18.968" cy="18.968" r="18.968"/><circle class="d" cx="18.968" cy="18.968" r="18.668"/></g><g transform="translate(11.381 8.852)"><path class="b" d="M43.8,42.564a3.094,3.094,0,0,0,.465.043,3.351,3.351,0,0,0,.508-.048,3.187,3.187,0,0,0,2-1.416A7.584,7.584,0,0,0,47.24,38h0a2.764,2.764,0,0,0-2.972-2.323A2.763,2.763,0,0,0,41.3,38a7.587,7.587,0,0,0,.474,3.143A3.2,3.2,0,0,0,43.8,42.564Zm-1.758-4.5a2.022,2.022,0,0,1,2.229-1.648,2.023,2.023,0,0,1,2.23,1.647,6.954,6.954,0,0,1-.384,2.715,2.424,2.424,0,0,1-1.482,1.044,1.806,1.806,0,0,1-.7.006,2.441,2.441,0,0,1-1.512-1.049A6.954,6.954,0,0,1,42.039,38.068Z" transform="translate(-36.466 -35.676)"/><rect class="b" width="2.297" height="0.745" transform="matrix(0.176, -0.984, 0.984, 0.176, 2.548, 13.655)"/><path class="b" d="M43.515,58.213a4.843,4.843,0,0,0-3.821,1.852l.585.462A4.122,4.122,0,0,1,46.7,60.46l.575-.474A4.853,4.853,0,0,0,43.515,58.213Z" transform="translate(-35.713 -46.365)"/><path class="b" d="M47.544,56.02,46.508,52.1a1.807,1.807,0,0,0-1.177-1.439,17.6,17.6,0,0,0-10.842.009,1.78,1.78,0,0,0-1.143,1.4L32.3,56.025a2.671,2.671,0,0,0,.185,2.359,16.489,16.489,0,0,0,1.894,1.545,1.718,1.718,0,0,0,.785.191,4.868,4.868,0,0,0,9.518,0,1.718,1.718,0,0,0,.785-.191,16.526,16.526,0,0,0,1.891-1.541A2.675,2.675,0,0,0,47.544,56.02Zm-7.622,7.2a4.117,4.117,0,0,1-3.311-1.669l1.251-1.334H41.8l1.392,1.392A4.122,4.122,0,0,1,39.923,63.217Zm3.524-1.987-1.463-1.463H37.669l-1.311,1.4a4.105,4.105,0,0,1-.433-1.058c.421-.1.719-.57.891-1.39a.784.784,0,0,0,.375-.372,1.686,1.686,0,0,0,.08-.2l.406.383h4.3l.564-.5a2.022,2.022,0,0,0,.115.313.782.782,0,0,0,.374.372c.172.821.47,1.286.891,1.39A4.08,4.08,0,0,1,43.447,61.23ZM46.795,57.9a17.676,17.676,0,0,1-1.7,1.383,1.657,1.657,0,0,1-.725.1c-.088,0-.176,0-.256,0-.025.007-.248-.176-.39-1.008l-.04-.236-.231-.062c-.113-.03-.115-.036-.132-.069a1.783,1.783,0,0,1-.114-.36l-.011-.043a5.766,5.766,0,0,1,1.33-.525,6.39,6.39,0,0,1,.5,1.172l.727-.163c0-.014-.458-1.508-.9-1.721-.1-.049-.272-.129-1.117.18-.114.042-.211.08-.3.119l-.009-.011-.028.025c-.758.315-.851.516-.887.6a.638.638,0,0,0-.053.236l-.642.569H37.855l-.461-.435a.691.691,0,0,0-.05-.37c-.042-.093-.154-.339-1.228-.731-.848-.31-1.018-.229-1.12-.18-.441.212-.9,1.706-.9,1.721l.727.163a6.433,6.433,0,0,1,.5-1.172,5.774,5.774,0,0,1,1.329.525c0,.014-.007.032-.013.054a1.663,1.663,0,0,1-.11.349c-.017.034-.02.04-.132.07l-.231.062-.04.236c-.141.826-.353,1.008-.389,1.008h0c-.08,0-.165,0-.257,0a1.7,1.7,0,0,1-.725-.1,17.447,17.447,0,0,1-1.7-1.387c-.346-.394-.113-1.337-.026-1.686l1.051-3.986a1.053,1.053,0,0,1,.657-.848,16.869,16.869,0,0,1,10.365-.007,1.079,1.079,0,0,1,.686.89L46.823,56.2C46.91,56.559,47.144,57.5,46.795,57.9Z" transform="translate(-32.121 -42.38)"/><rect class="b" width="0.745" height="2.297" transform="translate(11.92 11.524) rotate(-10.104)"/></g></g></g></svg>