<svg xmlns="http://www.w3.org/2000/svg" width="26" height="15.981" viewBox="0 0 26 15.981"><defs><style>.a{fill:none;stroke:#b62317;stroke-linecap:round;stroke-linejoin:round;stroke-miterlimit:10;}</style></defs><g transform="translate(0.5 0.5)"><g transform="translate(0 0)"><circle class="a" cx="3.596" cy="3.596" r="3.596" transform="translate(17.809 7.79)"/><circle class="a" cx="3.596" cy="3.596" r="3.596" transform="translate(0 7.79)"/><path class="a" d="M0,11.386,5.352,2.02A2.86,2.86,0,0,1,6.567.875L8.336,0" transform="translate(3.314)"/><path class="a" d="M17.379.337a58.506,58.506,0,0,0-6.044,1.012,7.211,7.211,0,0,1-5-.516Q6.128.725,5.914.6A7.733,7.733,0,0,0,0,.6s3.109-.412,4.12,7c0,0,2.435,1.161,4.232,0,0,0,.228-2.481,4.1-3.633a1.246,1.246,0,0,0,.855-.919,1.28,1.28,0,0,1,.441-.691Z" transform="translate(6.535 2.921)"/><path class="a" d="M0,0,6.517.861" transform="translate(14.887 10.525)"/><path class="a" d="M8.856,6.93A5.686,5.686,0,0,0,0,1.061" transform="translate(0.294 5.693)"/></g></g></svg>