<svg xmlns="http://www.w3.org/2000/svg" width="25" height="25" viewBox="0 0 25 25"><defs><style>.a{fill:#fff;}.a,.b{stroke:#ba3126;}.b{fill:#ba3126;stroke-width:0.5px;}.c{stroke:none;}.d{fill:none;}</style></defs><g transform="translate(-1272 -10865)"><g transform="translate(973 10527)"><g class="a" transform="translate(299 338)"><circle class="c" cx="12.5" cy="12.5" r="12.5"/><circle class="d" cx="12.5" cy="12.5" r="12"/></g></g><path class="b" d="M68.448,653.367l-3.822-1.828a4.145,4.145,0,0,0,1.652-3.308v-3.954a2.455,2.455,0,0,0-2.452-2.452h-3.4a2.455,2.455,0,0,0-2.452,2.452v3.954a4.145,4.145,0,0,0,1.652,3.308l-3.843,1.838a2.714,2.714,0,0,0-1.338,2.333v2.852a.276.276,0,1,0,.552,0v-2.852a2.153,2.153,0,0,1,1.044-1.846L58.9,652.5l1.647,5.756a.277.277,0,0,0,.266.2h.009a.275.275,0,0,0,.261-.217l.9-4.087a1.14,1.14,0,0,0,.15.015,1.124,1.124,0,0,0,.151-.015l.9,4.087a.275.275,0,0,0,.261.217h.009a.277.277,0,0,0,.266-.2l1.646-5.757,2.837,1.356a2.159,2.159,0,0,1,1.064,1.857v2.852c0,.153.095-.108.247-.108s.3-.064.3-.217v-2.527A2.721,2.721,0,0,0,68.448,653.367Zm-9.926-9.089a1.9,1.9,0,0,1,1.9-1.9h3.4a1.9,1.9,0,0,1,1.9,1.9v1.44a10.948,10.948,0,0,1-7.2,1.075Zm0,3.954v-.876a8.731,8.731,0,0,0,2.035.24,12.249,12.249,0,0,0,5.159-1.253c0,.047.009.093.009.141v1.748a3.6,3.6,0,0,1-7.2,0Zm2.25,8.82L59.4,652.258l.764-.365a4.128,4.128,0,0,0,1.047.389,1.153,1.153,0,0,0,.241,1.67ZM61.51,653a.615.615,0,1,1,.614.615A.615.615,0,0,1,61.51,653Zm1.966,4.052-.68-3.1a1.153,1.153,0,0,0,.241-1.67,4.13,4.13,0,0,0,1.047-.389l.764.365Z" transform="translate(1222.558 10228.392)"/></g></svg>