<svg xmlns="http://www.w3.org/2000/svg" width="25" height="25" viewBox="0 0 25 25"><defs><style>.a{fill:rgba(0,0,0,0);}.b{fill:#b62317;}</style></defs><rect class="a" width="25" height="25"/><path class="b" d="M23.831,15.9a.582.582,0,0,1-.582-.582V10.914a.582.582,0,0,1,1.163,0v4.408A.582.582,0,0,1,23.831,15.9Zm-3.093,0a.582.582,0,0,1-.582-.582V10.914a.582.582,0,0,1,1.163,0v4.408A.582.582,0,0,1,20.738,15.9Zm-3.061-.1H.582A.582.582,0,0,1,0,15.22v-4.2a.582.582,0,0,1,.582-.582H17.674a.583.583,0,0,1,.585.582v4.2A.582.582,0,0,1,17.677,15.8Zm-16.514-4.2v3.032H17.092l0-3.032ZM23.875,7.795a.582.582,0,0,1-.582-.582V5.78a1.034,1.034,0,0,0-1.032-1.026,2.2,2.2,0,0,1-2.183-2.2V.582a.581.581,0,1,1,1.163,0V2.553a1.034,1.034,0,0,0,1.02,1.038,2.2,2.2,0,0,1,2.2,2.189V7.213A.582.582,0,0,1,23.875,7.795Zm-5.021,0a.582.582,0,0,1-.582-.582V5.78A1.034,1.034,0,0,0,17.24,4.753a2.2,2.2,0,0,1-2.195-2.195V.582a.581.581,0,1,1,1.163,0V2.553A1.033,1.033,0,0,0,17.24,3.591a2.2,2.2,0,0,1,2.2,2.189V7.213A.582.582,0,0,1,18.854,7.795Z" transform="translate(0.543 4.348)"/></svg>