<svg xmlns="http://www.w3.org/2000/svg" width="14.115" height="28.164" viewBox="0 0 14.115 28.164"><defs><style>.a{fill:#b62317;stroke:#b62317;stroke-width:0.3px;}</style></defs><g transform="translate(-168.924 -130.666)"><path class="a" d="M182.6,145.332a4.113,4.113,0,0,0-.016-3.117,2.906,2.906,0,0,0-1.715-1.7l-.076-.021-.161.065-.318-.8a4.85,4.85,0,0,0,1.174-1.991c.977-3.457.227-5.545-2.294-6.384a9.261,9.261,0,0,0-2.866-.57,4.189,4.189,0,0,0-3.7,2.1,1.863,1.863,0,0,0-.71,1.289,2.921,2.921,0,0,0,1.125,2.238l.031.217a4.348,4.348,0,0,1,.082,1.349.436.436,0,0,0-.325.364,3.038,3.038,0,0,0,1.386,2.222l.049.037c.076.06.15.122.231.179a2.394,2.394,0,0,0,1.4.44,3.206,3.206,0,0,0,1.227-.268,2.791,2.791,0,0,1-.231.491l-.333.555.469-.167c-.02.063-.04.126-.066.191l-.936.379-.062.037a4.561,4.561,0,0,1-.459.308c-.949.591-2.693,1.678-1.916,3.945a7.177,7.177,0,0,0-3.508,4.072,6.882,6.882,0,0,0-.053,2.858c-.212.035-.6.211-.805,1.018-.4,1.146-.123,1.493.339,1.89a1.959,1.959,0,0,1,.382.4L170,157a1.554,1.554,0,0,0,.963.441.627.627,0,0,0,.129-.02c.244.64.437,1.063.463,1.12l.062.135h11.214l0-.229a37.886,37.886,0,0,0-.725-7.908A11.934,11.934,0,0,0,182.6,145.332Zm-10.69,12.885c-.075-.172-.215-.507-.38-.939,1.014-.308,5.128-1.579,7.971-2.787l.055-.023.037-.047a17.143,17.143,0,0,0,1.8-3.536c.117-.018.217-.039.3-.06a37.754,37.754,0,0,1,.668,7.393Zm-1.6-1.548a2.424,2.424,0,0,0-.447-.465c-.328-.282-.527-.452-.2-1.406a1.243,1.243,0,0,1,.293-.608,1.094,1.094,0,0,0,.3.608.342.342,0,0,0,.217.095l.047,0c.08,0,.157-.014.237-.021a10.156,10.156,0,0,0,4.089-1.609,7.831,7.831,0,0,1,3.182-1.3l.089,0,.063-.064a4.152,4.152,0,0,0,.331-1.715,3.978,3.978,0,0,0,2.293.752l.068,0a16.454,16.454,0,0,1-1.611,3.159c-2.84,1.2-6.93,2.462-7.9,2.754l-.211.064-.014,0-.031,0-.041.041a.266.266,0,0,1-.153.023A1.157,1.157,0,0,1,170.316,156.668Zm3.665-9.627.2-.092-.081-.2c-.809-2.045.675-2.969,1.657-3.581a5.669,5.669,0,0,0,.481-.321l.382-.155.376-.152.327-.132,3.053-1.236.215-.087.215-.087.011,0a2.544,2.544,0,0,1,1.345,1.408,3.317,3.317,0,0,1,.221,1.953,2.547,2.547,0,0,0-1.333-1.646l-.034-.014-.043-.017a1.974,1.974,0,0,0-.713-.143,2,2,0,0,0-.958.245,2.522,2.522,0,0,0-.665.516,3.379,3.379,0,0,0-.734,2.164c-.048.757-.11,3.873-.113,4.006l0,.1.07.07c.071.071.143.129.215.193a9.96,9.96,0,0,1-.189,1.683,8.544,8.544,0,0,0-3.262,1.349,9.653,9.653,0,0,1-3.966,1.557,7.551,7.551,0,0,1-.123-3.5A6.931,6.931,0,0,1,173.981,147.041Zm1.189-6.4a1.042,1.042,0,0,0,.107-.035,1.343,1.343,0,0,0,.676-.819.232.232,0,1,0-.437-.153.794.794,0,0,1-1,.6c-.979-.783-1.3-1.63-1.241-1.775.517-.129.395-.972.264-1.866q-.019-.132-.037-.258l.155-1.015a12.7,12.7,0,0,0,2.631,2.529l.39.245-.08-1.028a6.573,6.573,0,0,1,.725,2.837,3.683,3.683,0,0,1-.04.489c-.045.024-.09.05-.135.072a2.857,2.857,0,0,1-1.243.323A1.957,1.957,0,0,1,175.17,140.64Zm-2.189-4.954a2.1,2.1,0,0,1-.6-1.444,1.416,1.416,0,0,1,.551-.979l.066-.069a3.715,3.715,0,0,1,3.333-1.915,8.839,8.839,0,0,1,2.719.546c2.269.755,2.9,2.6,1.994,5.818a4.261,4.261,0,0,1-.919,1.633c-.057.065-.114.13-.173.192s-.119.12-.179.178a8.5,8.5,0,0,1-2.139,1.455c0-.072.005-.141,0-.206.02-.068.044-.136.06-.2.023-.1.036-.207.05-.311s.024-.2.03-.307l0-.04c.007-.149.008-.3,0-.445-.006-.131-.017-.261-.033-.39a8.508,8.508,0,0,0-1.275-3.3l-.49-.72.155,2a15.73,15.73,0,0,1-2.448-2.566l-.039-.053-.157-.21-.135-.18-.254,1.668C173.057,135.787,173.024,135.737,172.982,135.686Zm4.582,5.962a9.1,9.1,0,0,0,2.394-1.534l.247.623-2.678,1.084C177.541,141.763,177.552,141.706,177.563,141.649Zm4.18,8.5c-.024.083-.047.154-.063.2l-.079.021-.029.007c-.067.017-.146.034-.242.049-.078.013-.166.023-.261.03s-.167.011-.259.011a3.563,3.563,0,0,1-2.258-.84c-.075-.061-.151-.127-.226-.2-.023-.021-.046-.038-.07-.06,0-.2.014-.678.027-1.237.023-.984.056-2.221.083-2.649a2.456,2.456,0,0,1,1.158-2.3,1.538,1.538,0,0,1,.736-.189c.919,0,1.61.811,1.85,2.169.007.041.012.083.018.124.027.164.048.328.064.491s.031.354.039.528a12.008,12.008,0,0,1-.381,3.453C181.811,149.911,181.774,150.04,181.743,150.144Z" transform="translate(0)"/></g></svg>