<svg xmlns="http://www.w3.org/2000/svg" width="25" height="25" viewBox="0 0 25 25"><defs><style>.a{fill:#fff;stroke:#ba3126;}.b,.d{fill:none;}.b{stroke:#b42f24;stroke-linecap:round;stroke-linejoin:round;stroke-width:0.8px;}.c{stroke:none;}</style></defs><g transform="translate(-310 -401)"><g transform="translate(11 63)"><g class="a" transform="translate(299 338)"><circle class="c" cx="12.5" cy="12.5" r="12.5"/><circle class="d" cx="12.5" cy="12.5" r="12"/></g></g><g transform="translate(299.5 390.5)"><path class="b" d="M16.5,29.14v-1.4h.234a.7.7,0,0,0,.7-.7h0a.7.7,0,0,0-.7-.7H16.5v-1.4h.234a.7.7,0,0,0,.7-.7h0a.7.7,0,0,0-.7-.7H16.5v-1.4h.234a.7.7,0,0,0,.7-.7h0a.7.7,0,0,0-.7-.7H16.5v-1.4h.234a.7.7,0,0,0,.7-.7h0a.7.7,0,0,0-.7-.7H16.5V16.5h1.4v.234a.7.7,0,0,0,.7.7h0a.7.7,0,0,0,.7-.7V16.5h1.4v.234a.7.7,0,0,0,.7.7h0a.7.7,0,0,0,.7-.7V16.5h1.4v.234a.7.7,0,0,0,.7.7h0a.7.7,0,0,0,.7-.7V16.5h1.4v.234a.7.7,0,0,0,.7.7h0a.7.7,0,0,0,.7-.7V16.5h1.4v1.4h-.234a.7.7,0,0,0-.7.7h0a.7.7,0,0,0,.7.7h.234v1.4h-.234a.7.7,0,0,0-.7.7h0a.7.7,0,0,0,.7.7h.234v1.4h-.234a.7.7,0,0,0-.7.7h0a.7.7,0,0,0,.7.7h.234v1.4h-.234a.7.7,0,0,0-.7.7h0a.7.7,0,0,0,.7.7h.234v1.4h-1.4v-.234a.7.7,0,0,0-.7-.7h0a.7.7,0,0,0-.7.7v.234h-1.4v-.234a.7.7,0,0,0-.7-.7h0a.7.7,0,0,0-.7.7v.234h-1.4v-.234a.7.7,0,0,0-.7-.7h0a.7.7,0,0,0-.7.7v.234h-1.4v-.234a.7.7,0,0,0-.7-.7h0a.7.7,0,0,0-.7.7v.234Z"/><circle class="b" cx="3.511" cy="3.511" r="3.511" transform="translate(19.309 19.309)"/></g></g></svg>