<svg xmlns="http://www.w3.org/2000/svg" width="25" height="25" viewBox="0 0 25 25"><defs><style>.a{fill:#fff;}.a,.b{stroke:#ba3126;}.b,.d{fill:none;}.b{stroke-miterlimit:10;stroke-width:0.8px;}.c{stroke:none;}</style></defs><g transform="translate(-536 -331)"><g transform="translate(237 -7)"><g class="a" transform="translate(299 338)"><circle class="c" cx="12.5" cy="12.5" r="12.5"/><circle class="d" cx="12.5" cy="12.5" r="12"/></g></g><g transform="translate(409.346 45)"><path class="b" d="M146.357,302.143a.357.357,0,0,1-.357-.357v-.714c0-.407,1.18-1.071,2.144-1.071h0c.963,0,2.144.664,2.144,1.071v.714a.357.357,0,0,1-.357.357Z" transform="translate(-9 -6.429)"/><path class="b" d="M149.429,293.571a1.439,1.439,0,0,0,1.429-1.53v-.511a1.432,1.432,0,1,0-2.857,0v.511A1.439,1.439,0,0,0,149.429,293.571Z" transform="translate(-10.286)"/><path class="b" d="M132.357,328.143a.357.357,0,0,1-.357-.357v-.714c0-.407,1.18-1.071,2.144-1.071h0c.963,0,2.144.664,2.144,1.071v.714a.357.357,0,0,1-.357.357Z" transform="translate(0 -23.143)"/><path class="b" d="M135.429,319.571a1.439,1.439,0,0,0,1.429-1.53v-.511a1.432,1.432,0,1,0-2.857,0v.511A1.439,1.439,0,0,0,135.429,319.571Z" transform="translate(-1.286 -16.714)"/><path class="b" d="M160.357,328.143a.357.357,0,0,1-.357-.357v-.714c0-.407,1.18-1.071,2.144-1.071h0c.963,0,2.144.664,2.144,1.071v.714a.357.357,0,0,1-.357.357Z" transform="translate(-18 -23.143)"/><path class="b" d="M163.429,319.571a1.439,1.439,0,0,0,1.429-1.53v-.511a1.432,1.432,0,1,0-2.857,0v.511A1.439,1.439,0,0,0,163.429,319.571Z" transform="translate(-19.286 -16.714)"/><line class="b" y2="2.5" transform="translate(139.143 296.786)"/><line class="b" x1="2.143" y1="1.429" transform="translate(139.143 299.286)"/><line class="b" y1="1.429" x2="2.143" transform="translate(137 299.286)"/></g></g></svg>