<svg xmlns="http://www.w3.org/2000/svg" width="25" height="25" viewBox="0 0 25 25"><defs><style>.a{fill:#fff;}.a,.b{stroke:#ba3126;}.b{fill:#ba3126;stroke-width:0.2px;}.c{stroke:none;}.d{fill:none;}</style></defs><g transform="translate(-536 -528)"><g transform="translate(-736 -10337)"><g transform="translate(973 10527)"><g class="a" transform="translate(299 338)"><circle class="c" cx="12.5" cy="12.5" r="12.5"/><circle class="d" cx="12.5" cy="12.5" r="12"/></g></g></g><g transform="translate(-1.25 281.309)"><path class="b" d="M884.987,256.982a2.673,2.673,0,0,1-1.851-1.033,3.16,3.16,0,0,1-.721-1.395,1.252,1.252,0,0,1,.326-1.249,1.06,1.06,0,0,1,.7-.244,2.673,2.673,0,0,1,1.851,1.033,3.161,3.161,0,0,1,.721,1.395,1.252,1.252,0,0,1-.326,1.249A1.06,1.06,0,0,1,884.987,256.982Zm-1.543-3.25a.4.4,0,0,0-.266.082c-.269.232-.127,1.007.467,1.7a2.043,2.043,0,0,0,1.342.8.4.4,0,0,0,.266-.082.641.641,0,0,0,.1-.61,2.519,2.519,0,0,0-.572-1.088A2.042,2.042,0,0,0,883.444,253.731Z" transform="translate(-329.764)"/><g transform="translate(542.711 253.202)"><path class="b" d="M891.189,258.588a.336.336,0,0,1-.218-.59h0l.026-.022a.336.336,0,1,1,.424.521l-.014.011,0,0A.332.332,0,0,1,891.189,258.588Z" transform="translate(-880.705 -257.894)"/><path class="b" d="M545.321,270.927a2.673,2.673,0,0,1-1.851-1.033,3.16,3.16,0,0,1-.721-1.395,1.252,1.252,0,0,1,.326-1.249l9.9-8.509a.335.335,0,0,1,.437.508.641.641,0,0,0-.105.61,2.522,2.522,0,0,0,.572,1.088,2.111,2.111,0,0,0,1.342.8.4.4,0,0,0,.266-.082l.012-.011a.335.335,0,0,1,.486.023l0,0a.335.335,0,0,1-.035.473l-9.928,8.531a.336.336,0,0,1-.059.041A1.077,1.077,0,0,1,545.321,270.927Zm7.316-11.01-9.125,7.842a.641.641,0,0,0-.105.61,2.522,2.522,0,0,0,.572,1.088,2.111,2.111,0,0,0,1.342.8.4.4,0,0,0,.266-.082.321.321,0,0,1,.047-.034l9.085-7.807a3.108,3.108,0,0,1-1.347-.948,3.161,3.161,0,0,1-.721-1.395C552.646,259.966,552.641,259.942,552.637,259.917Z" transform="translate(-542.71 -258.638)"/></g><g transform="translate(546.915 256.789)"><path class="b" d="M748,381.634a.335.335,0,0,1-.311-.461h.018a.335.335,0,0,1,.066-.083h.009l.026-.022a.336.336,0,1,1,.425.52l-.015.012,0,0A.331.331,0,0,1,748,381.634Z" transform="translate(-745.895 -380.94)"/><path class="b" d="M689.544,386.774a2.673,2.673,0,0,1-1.851-1.033,3.161,3.161,0,0,1-.721-1.395,1.252,1.252,0,0,1,.326-1.249l1.523-1.309h0a.335.335,0,1,1,.437.509h0a.642.642,0,0,0-.1.61,2.521,2.521,0,0,0,.572,1.088,2.111,2.111,0,0,0,1.342.8.4.4,0,0,0,.266-.082l.012-.012a.335.335,0,0,1,.485.024l0,0a.335.335,0,0,1-.036.473l-1.549,1.331a.333.333,0,0,1-.059.041A1.077,1.077,0,0,1,689.544,386.774Zm-1.062-3.81-.747.642c-.27.232-.127,1.007.467,1.7a2.111,2.111,0,0,0,1.342.8.4.4,0,0,0,.266-.082.34.34,0,0,1,.047-.034l.706-.607a3.107,3.107,0,0,1-1.347-.948,3.16,3.16,0,0,1-.721-1.395Q688.488,383,688.482,382.964Z" transform="translate(-686.934 -381.685)"/></g><path class="b" d="M772.846,492a.336.336,0,0,1-.254-.117l-2-2.323a.335.335,0,0,1,.036-.473l1.529-1.314a.335.335,0,0,1,.473.036l1.985,2.31a.335.335,0,0,1-.24.567h-.031l-1.06-.086-.108,1.1a.335.335,0,0,1-.334.3Zm-1.524-2.623,1.267,1.474.064-.646a.335.335,0,0,1,.361-.3l.576.047-1.246-1.45Z" transform="translate(-221.163 -227.793)"/><path class="b" d="M917.615,299.125a.335.335,0,0,1-.219-.59l1.586-1.363a.335.335,0,1,1,.437.508l-1.586,1.363A.334.334,0,0,1,917.615,299.125Z" transform="translate(-363.65 -42.747)"/></g></g></svg>