<svg xmlns="http://www.w3.org/2000/svg" width="37.937" height="37.937" viewBox="0 0 37.937 37.937"><defs><style>.a,.d{fill:none;}.a{stroke:#ba3126;stroke-width:0.6px;}.b{fill:#ba3126;}.c{stroke:none;}</style></defs><g transform="translate(-305 -301)"><g transform="translate(305 301)"><g class="a" transform="translate(0)"><circle class="c" cx="18.968" cy="18.968" r="18.968"/><circle class="d" cx="18.968" cy="18.968" r="18.668"/></g><g transform="translate(8.852 12.008)"><path class="b" d="M357.241,187.574h-2.636V191h2.636Zm-.354,3.07h-1.927v-2.716h1.927Z" transform="translate(-350.663 -178.399)"/><path class="b" d="M383.946,187.574H381.31V191h2.636Zm-.354,3.07h-1.928v-2.716h1.928Z" transform="translate(-372.637 -178.399)"/><path class="b" d="M410.652,187.574h-2.636V191h2.636Zm-.354,3.07H408.37v-2.716H410.3Z" transform="translate(-394.611 -178.399)"/><path class="b" d="M351.24,151.336h1.1v-.709h-1.1V139.813l-4.535,2.072v-2.072l-4.535,2.072v-2.072l-4.535,2.072v-3.853h.885v-2.244h-5.95v2.244h.885v12.595h-1.1v.709H351.24Zm-17.962-14.012V136.5h4.533v.827h-.885v5.665l4.535-2.072v2.072L346,140.916v2.072l4.535-2.072v9.711H334.162v-13.3Z" transform="translate(-332.355 -135.788)"/></g></g></g></svg>