<svg xmlns="http://www.w3.org/2000/svg" width="25" height="25" viewBox="0 0 25 25"><defs><style>.a{fill:#fff;}.a,.b{stroke:#ba3126;}.b{fill:#ba3126;stroke-width:0.3px;}.c{stroke:none;}.d{fill:none;}</style></defs><g transform="translate(-364 -424)"><g transform="translate(65 86)"><g class="a" transform="translate(299 338)"><circle class="c" cx="12.5" cy="12.5" r="12.5"/><circle class="d" cx="12.5" cy="12.5" r="12"/></g></g><g transform="translate(254.905 331.761)"><path class="b" d="M125.056,106.051a.247.247,0,0,1-.1-.02c-3.032-1.306-5.154-3.544-5.406-5.7a2.693,2.693,0,0,1,2.619-3.091,4.29,4.29,0,0,1,2.885,1.533,4.29,4.29,0,0,1,2.885-1.533,2.693,2.693,0,0,1,2.619,3.091c-.252,2.158-2.374,4.4-5.406,5.7A.246.246,0,0,1,125.056,106.051Zm-2.885-8.322a2.2,2.2,0,0,0-2.131,2.543c.175,1.495,1.594,3.762,5.015,5.266,3.421-1.5,4.841-3.771,5.015-5.266a2.2,2.2,0,0,0-2.131-2.543,4.136,4.136,0,0,0-2.69,1.57.245.245,0,0,1-.194.1h0a.246.246,0,0,1-.194-.095A4.15,4.15,0,0,0,122.171,97.729Z" transform="translate(-3.647 0)"/><g transform="translate(115.095 103.083)"><path class="b" d="M118.331,139.479a.246.246,0,0,1-.245-.233c-.01-.2-.016-.368-.022-.528-.007-.2-.014-.379-.027-.6a.788.788,0,0,0-.249-.581c-.342-.332-.674-.678-1-1.012-.257-.267-.523-.543-.795-.814a1.43,1.43,0,0,1-.354-.563c-.213-.613-.362-1.086-.482-1.532a3.415,3.415,0,0,1-.056-.518,22.812,22.812,0,0,1,.054-2.367.628.628,0,0,1,1.072-.4c.258.261.311.83.361,1.668a.246.246,0,0,1-.49.029,3.684,3.684,0,0,0-.219-1.352.136.136,0,0,0-.233.087,22.333,22.333,0,0,0-.053,2.321,2.969,2.969,0,0,0,.039.405c.118.435.264.9.472,1.5a.932.932,0,0,0,.236.376c.276.274.544.553.8.822.319.331.648.674.993,1.009l.016.017a1.27,1.27,0,0,1,.372.878c.014.224.02.411.028.611,0,.091.007.186.011.287h2V137.2a2,2,0,0,0-1.059-1.686,8.146,8.146,0,0,1-1.437-1.342,10.45,10.45,0,0,0-.946-.959.174.174,0,0,0-.106-.054.154.154,0,0,0-.084.063.534.534,0,0,0,.012.237,2.265,2.265,0,0,0,.4.813,4.315,4.315,0,0,0,.752.808.246.246,0,0,1-.312.379,4.76,4.76,0,0,1-.84-.9,2.75,2.75,0,0,1-.48-1.011.792.792,0,0,1,.082-.622.585.585,0,0,1,.9-.083,10.819,10.819,0,0,1,.991,1,7.639,7.639,0,0,0,1.352,1.267,2.523,2.523,0,0,1,1.272,2.09v2.036a.246.246,0,0,1-.246.246h-2.477Z" transform="translate(-115.095 -130.143)"/><path class="b" d="M155.365,139.48h-2.477a.246.246,0,0,1-.245-.246V137.2a2.523,2.523,0,0,1,1.271-2.09,7.639,7.639,0,0,0,1.352-1.267,10.794,10.794,0,0,1,.991-1,.585.585,0,0,1,.9.083.778.778,0,0,1,.082.621,2.744,2.744,0,0,1-.48,1.012,4.747,4.747,0,0,1-.84.9.246.246,0,0,1-.312-.379,4.309,4.309,0,0,0,.752-.808,2.262,2.262,0,0,0,.4-.814c.033-.186.013-.234.01-.239a.151.151,0,0,0-.082-.06c-.026,0-.063.018-.105.054a10.393,10.393,0,0,0-.946.959,8.132,8.132,0,0,1-1.437,1.342,2,2,0,0,0-1.059,1.686v1.79h2c0-.1.007-.2.011-.286.007-.2.014-.388.027-.612a1.261,1.261,0,0,1,.366-.87l.022-.024c.345-.335.674-.678.992-1.009.259-.269.527-.548.8-.822a.928.928,0,0,0,.236-.376c.205-.591.355-1.068.473-1.5a3.01,3.01,0,0,0,.039-.405,22.382,22.382,0,0,0-.053-2.322.136.136,0,0,0-.233-.087,3.688,3.688,0,0,0-.219,1.352.246.246,0,0,1-.49-.03c.05-.838.1-1.407.361-1.668a.628.628,0,0,1,1.072.4,22.776,22.776,0,0,1,.053,2.367,3.383,3.383,0,0,1-.056.518c-.12.443-.273.93-.482,1.532a1.425,1.425,0,0,1-.354.563c-.272.271-.538.547-.8.815-.319.331-.648.674-1,1.012a.79.79,0,0,0-.248.58c-.013.219-.02.4-.027.6-.006.16-.012.327-.022.527A.246.246,0,0,1,155.365,139.48Z" transform="translate(-145.972 -130.143)"/></g></g></g></svg>