<svg xmlns="http://www.w3.org/2000/svg" width="37.937" height="37.937" viewBox="0 0 37.937 37.937"><defs><style>.a,.d{fill:none;}.a{stroke:#ba3126;stroke-width:0.6px;}.b{fill:#ba3126;}.c{stroke:none;}</style></defs><g transform="translate(-810 -404)"><g transform="translate(0 -87)"><g class="a" transform="translate(810 491)"><circle class="c" cx="18.968" cy="18.968" r="18.968"/><circle class="d" cx="18.968" cy="18.968" r="18.668"/></g><g transform="translate(-92 212.216)"><path class="b" d="M1020.8,393.426a.333.333,0,0,0-.572-.123l-1.671,1.944a.333.333,0,0,0-.037.381l1.739,3.072a.333.333,0,0,0,.289.169.344.344,0,0,0,.107-.017l1.276-.431a.333.333,0,0,0,.213-.409Zm-.1,4.707-1.488-2.629,1.119-1.3,1.082,3.692Z" transform="translate(-95.643 -92.05)"/><path class="b" d="M931.1,299.39l-3.89-1.789.776-1.035a.332.332,0,0,0-.217-.528l-1.664-.247c1.585-1.247,2.241-2.155,1.942-2.7a.918.918,0,0,0-.883-.384,7.127,7.127,0,0,0-1.862.367l.771-2.312a.332.332,0,0,0-.439-.414l-2.589,1.035-.284-2.135a.333.333,0,0,0-.582-.172l-2.355,2.747-3.93-2.967a.333.333,0,0,0-.5.42l1.651,3.151-3.385-1.3a.333.333,0,0,0-.425.178l-.534,1.236a.332.332,0,0,0,.118.407l5.067,3.447a24.886,24.886,0,0,0-4.382,2.882l-2.389-1.341a.331.331,0,0,0-.41.067l-.628.695a.333.333,0,0,0,.015.461l2.346,2.285a.8.8,0,0,0,.047.1.77.77,0,0,0,.062.1l.641,3.212a.332.332,0,0,0,.326.268.321.321,0,0,0,.053,0l.925-.149a.332.332,0,0,0,.279-.307l.174-2.733a24.925,24.925,0,0,0,4.8-2.11l.058,2.6a.332.332,0,0,0,.452.3l2.392-.923a.331.331,0,0,0,.205-.242l.858-4.073q.918-.6,1.644-1.123l.005,0,1.75.26-.689.918a.333.333,0,0,0,.127.5L930,299.614l-3.131.866a.333.333,0,0,0-.135.567l1.986,1.8-2.049-.332a.333.333,0,1,0-.107.657l3.156.512a.327.327,0,0,0,.053,0,.333.333,0,0,0,.224-.579l-2.368-2.152,3.427-.948a.333.333,0,0,0,.05-.623Zm-14.422-9.114,3,2.262a.331.331,0,0,0,.453-.049l2.075-2.42.242,1.821a.332.332,0,0,0,.453.265l2.32-.928-.7,2.1c-.747.261-1.59.6-2.506,1.006l-4.116-1.584a.326.326,0,0,0-.028-.2Zm6.564,6.716a.331.331,0,0,0-.145.211l-.849,4.032-1.782.688-.06-2.67a.332.332,0,0,0-.493-.284l-.208.114a23.536,23.536,0,0,1-5.146,2.254.333.333,0,0,0-.255.3l-.172,2.71-.346.056-.594-2.976a.334.334,0,0,0-.074-.151.38.38,0,0,1-.041-.055.456.456,0,0,1-.023-.061.33.33,0,0,0-.087-.144l-2.174-2.117.235-.26,2.369,1.33a.332.332,0,0,0,.393-.049,23.582,23.582,0,0,1,4.691-3.094l.21-.112a.333.333,0,0,0,.029-.568l-5.291-3.6.3-.691L921.9,295a.331.331,0,0,0,.256-.007,16.417,16.417,0,0,1,5.009-1.628c.2,0,.277.041.293.03C927.467,293.628,926.721,294.746,923.245,296.992Z"/></g></g></g></svg>