<svg xmlns="http://www.w3.org/2000/svg" width="25" height="25" viewBox="0 0 25 25"><defs><style>.a{fill:#fff;stroke:#ba3126;}.b{fill:#ba3126;stroke:#b42f24;stroke-width:0.3px;}.c{stroke:none;}.d{fill:none;}</style></defs><g transform="translate(-525 -139)"><g transform="translate(226 -199)"><g class="a" transform="translate(299 338)"><circle class="c" cx="12.5" cy="12.5" r="12.5"/><circle class="d" cx="12.5" cy="12.5" r="12"/></g></g><g transform="translate(-339.295 -53.767)"><g transform="translate(871.719 202.569)"><path class="b" d="M885.272,246.807h-4.661a2.184,2.184,0,0,1-2.182-2.182v-7.612a.282.282,0,1,1,.563,0v7.612a1.62,1.62,0,0,0,1.619,1.618h4.661a1.62,1.62,0,0,0,1.618-1.618v-7.937a.282.282,0,1,1,.563,0v7.938A2.184,2.184,0,0,1,885.272,246.807Z" transform="translate(-878.429 -236.406)"/></g><g transform="translate(870.62 197.025)"><path class="b" d="M872.63,203.578a2.007,2.007,0,0,1-.663-3.9,3.134,3.134,0,0,1,3.078-2.651,3.094,3.094,0,0,1,2.01.739,2.175,2.175,0,0,1,.821-.163,2.227,2.227,0,0,1,2.153,1.642,2.009,2.009,0,1,1-2.016,2.832,1.915,1.915,0,0,1-.507-.03,3.11,3.11,0,0,1-3.538,1.015A2.007,2.007,0,0,1,872.63,203.578Zm2.414-5.99a2.564,2.564,0,0,0-2.539,2.329.282.282,0,0,1-.214.25,1.443,1.443,0,1,0,1.4,2.372.282.282,0,0,1,.322-.068,2.547,2.547,0,0,0,3.138-.9.281.281,0,0,1,.3-.114,1.654,1.654,0,0,0,.419.06,1.691,1.691,0,0,0,.274-.028.281.281,0,0,1,.314.192,1.443,1.443,0,1,0,1.384-1.884l-.041,0H879.8a.281.281,0,0,1-.278-.235,1.655,1.655,0,0,0-2.395-1.216.282.282,0,0,1-.321-.048A2.537,2.537,0,0,0,875.044,197.588Zm4.757,1.93h0Z" transform="translate(-870.62 -197.025)"/></g><g transform="translate(880.181 202.934)"><path class="b" d="M938.813,246.893a.282.282,0,0,1,0-.563,2.592,2.592,0,0,0,2.589-2.589v-3.085a1.1,1.1,0,0,0-1.1-1.1h-1.493a.282.282,0,0,1,0-.563h1.493a1.661,1.661,0,0,1,1.659,1.659v3.085A3.155,3.155,0,0,1,938.813,246.893Z" transform="translate(-938.532 -238.997)"/></g><g transform="translate(873.269 204.179)"><path class="b" d="M889.719,254.847a.282.282,0,0,1-.282-.282v-6.444a.282.282,0,1,1,.563,0v6.444A.282.282,0,0,1,889.719,254.847Z" transform="translate(-889.438 -247.84)"/></g><g transform="translate(875.046 204.179)"><path class="b" d="M902.34,254.847a.281.281,0,0,1-.281-.282v-6.444a.281.281,0,1,1,.563,0v6.444A.282.282,0,0,1,902.34,254.847Z" transform="translate(-902.059 -247.84)"/></g><g transform="translate(876.823 204.179)"><path class="b" d="M914.961,254.847a.282.282,0,0,1-.282-.282v-6.444a.282.282,0,1,1,.563,0v6.444A.282.282,0,0,1,914.961,254.847Z" transform="translate(-914.679 -247.84)"/></g><g transform="translate(878.6 204.179)"><path class="b" d="M927.581,254.847a.282.282,0,0,1-.281-.282v-6.444a.282.282,0,1,1,.563,0v6.444A.282.282,0,0,1,927.581,254.847Z" transform="translate(-927.299 -247.84)"/></g></g></g></svg>