<svg xmlns="http://www.w3.org/2000/svg" width="37.937" height="37.937" viewBox="0 0 37.937 37.937"><defs><style>.a,.d{fill:none;}.a,.b{stroke:#ba3126;}.a{stroke-width:0.6px;}.b{fill:#ba3126;stroke-width:0.2px;}.c{stroke:none;}</style></defs><g transform="translate(-305 -426)"><g transform="translate(305 426)"><g class="a" transform="translate(0)"><circle class="c" cx="18.968" cy="18.968" r="18.968"/><circle class="d" cx="18.968" cy="18.968" r="18.668"/></g><path class="b" d="M2074.664,1546.014l-7.162-.264c.942-1.407-3.147-1.652-4.51-.85-.425.25-.394.726.406,1-.988.054-3.026.167-4.033.228l-.757-1.184.594-.507-1.8-.608-2.367.29,1.213,1.014.449,2.226,5.908-.263.274,2.057-8.327,1.444,1.761,3.9-3.745.8.717,1.284,7.124-1.271-1.086-3.714,5.81-.824,3.745,1.489-1.742,2.408h0l-1.228,1.7,5.97,1.377,1.736-.879-3.2-1.187,3.317-3.655-4.766-2.795.413-2.29,3.176-.008,3.39,1.35-.7.412,1.239.607,1.1.1,1.5.472.858-.816Zm4.174,3.524-1.046-.325-1.031-.089-.9-.435.715-.423-3.815-1.507-3.841.01-.492,2.511,4.664,2.766-3.435,3.714h0l3.009,1.128-.951.477-5.043-1.153.9-1.277h0l1.941-2.746-4.221-1.663-6.6.93,1.02,3.693-5.955,1.055-.451-.784,3.7-.793-1.835-3.921,8.241-1.438-.353-2.361-5.909.261-.456-2.088-1.082-.891,1.609-.2,1.456.5-.554.467.848,1.362.208-.013c1.2-.076,5.522-.312,5.522-.312l-.6-.11c-.983-.18-1.114-.681-.72-.916a3.524,3.524,0,0,1,1.677-.371c1.809-.049,2.254.472,2.073.954a1.364,1.364,0,0,1-.235.34l7.483.277,4.972,2.887Z" transform="translate(-2046.243 -1532.449)"/></g></g></svg>