<svg xmlns="http://www.w3.org/2000/svg" width="25" height="25" viewBox="0 0 25 25"><defs><style>.a{fill:#fff;}.a,.b{stroke:#ba3126;}.b{fill:#ba3126;stroke-width:0.5px;}.c{stroke:none;}.d{fill:none;}</style></defs><g transform="translate(-355 -401)"><g transform="translate(56 63)"><g class="a" transform="translate(299 338)"><circle class="c" cx="12.5" cy="12.5" r="12.5"/><circle class="d" cx="12.5" cy="12.5" r="12"/></g></g><path class="b" d="M48.506,145.179a.167.167,0,0,0-.3-.024c-.114.078-.154.3-.176.427a3.038,3.038,0,0,0-.593.006,6.771,6.771,0,0,0-.426-2.232,5.205,5.205,0,0,0,.563-.233c.084.112.478.513.506.14.125-.168-.106-.634-.19-.791a1.99,1.99,0,0,0-.248-.362.158.158,0,0,0-.269.119c-.085.113-.035.332-.005.457a2.739,2.739,0,0,0-.537.237,6.787,6.787,0,0,0-1.228-1.828,2.908,2.908,0,0,0,.44-.433.761.761,0,0,0,.391.142.172.172,0,0,0,.125-.251c0-.233-.355-.532-.522-.66a.914.914,0,0,0-.354-.2.172.172,0,0,0-.18.22.728.728,0,0,0,.182.422,2.8,2.8,0,0,0-.417.43,6.775,6.775,0,0,0-1.77-1.185,2.556,2.556,0,0,0,.258-.58c.137.021.7.036.458-.25-.024-.227-.577-.407-.759-.456-.113-.031-.341-.112-.451-.047a.171.171,0,0,0-.018.254c.017.141.206.263.316.331a2.155,2.155,0,0,0-.222.571,6.739,6.739,0,0,0-2.2-.44,1.9,1.9,0,0,0,.021-.655.782.782,0,0,0,.381-.173.17.17,0,0,0-.086-.263c-.164-.175-.657-.13-.87-.1-.112.016-.318.028-.4.124a.174.174,0,0,0,.055.254c.079.113.3.152.428.174a1.845,1.845,0,0,0,.019.638,6.751,6.751,0,0,0-2.179.435c.035-.181-.165-.483-.233-.649.112-.083.516-.475.142-.5-.167-.127-.635.1-.792.185a1.994,1.994,0,0,0-.364.247c-.116.1-.017.264.118.269.112.086.332.037.457.008.074.179.134.48.295.6a6.785,6.785,0,0,0-1.884,1.266c-.021-.2-.334-.4-.465-.533a.763.763,0,0,0,.142-.391.171.171,0,0,0-.25-.125c-.233,0-.533.354-.662.521a.913.913,0,0,0-.2.353.172.172,0,0,0,.22.18c.135.021.319-.107.422-.181.129.129.329.43.523.449a6.781,6.781,0,0,0-1.223,1.815c-.078-.185-.466-.263-.638-.336.021-.136.037-.7-.249-.458-.227.024-.408.577-.457.758-.031.113-.112.341-.048.451a.172.172,0,0,0,.255.018c.141-.017.263-.206.331-.315.179.076.465.271.664.214a6.748,6.748,0,0,0-.47,2.239c-.142-.147-.535-.072-.722-.074a.78.78,0,0,0-.171-.382.17.17,0,0,0-.263.086c-.176.162-.133.657-.1.87.015.112.027.318.122.4a.174.174,0,0,0,.253-.055c.114-.078.154-.3.176-.427.185,0,.56.081.7-.061a6.756,6.756,0,0,0,.44,2.313c-.179-.075-.525.154-.692.224-.084-.112-.478-.513-.505-.139-.125.168.106.634.19.79a1.985,1.985,0,0,0,.249.363.157.157,0,0,0,.269-.119c.085-.113.035-.332.005-.457.181-.076.524-.142.62-.333a6.794,6.794,0,0,0,1.251,1.891c-.2.009-.415.334-.545.466a.763.763,0,0,0-.391-.142.172.172,0,0,0-.125.25c0,.233.355.533.523.661a.92.92,0,0,0,.354.2.172.172,0,0,0,.18-.22c.021-.135-.108-.319-.181-.422.129-.13.438-.336.448-.533a6.794,6.794,0,0,0,1.793,1.237c-.166.091-.244.462-.315.629-.137-.021-.7-.036-.458.249.024.227.578.407.759.456.113.031.341.112.451.047a.172.172,0,0,0,.018-.255c-.018-.141-.207-.263-.316-.331.075-.178.253-.44.22-.639a6.754,6.754,0,0,0,2.226.485c-.1.164-.038.494-.038.681a.785.785,0,0,0-.38.173.169.169,0,0,0,.086.263c.164.175.657.13.87.1.112-.016.318-.029.395-.125a.173.173,0,0,0-.055-.253c-.078-.113-.3-.152-.428-.174a1.547,1.547,0,0,0-.031-.659,6.761,6.761,0,0,0,2.186-.4,2.207,2.207,0,0,0,.236.6c-.112.083-.516.475-.142.5.167.127.635-.1.792-.185a2.014,2.014,0,0,0,.364-.247c.117-.1.018-.265-.118-.269-.112-.086-.332-.038-.457-.008a2.014,2.014,0,0,0-.256-.565,6.778,6.778,0,0,0,1.872-1.219,2.473,2.473,0,0,0,.437.45.763.763,0,0,0-.142.391.171.171,0,0,0,.25.125c.233,0,.533-.354.662-.522a.919.919,0,0,0,.2-.353.172.172,0,0,0-.22-.18c-.135-.021-.319.107-.422.181a2.534,2.534,0,0,0-.436-.421,6.775,6.775,0,0,0,1.209-1.756,3.889,3.889,0,0,0,.565.248c-.021.137-.037.7.249.459.227-.024.408-.577.458-.759.031-.113.112-.34.047-.451a.171.171,0,0,0-.254-.018c-.141.017-.263.206-.332.315a2.583,2.583,0,0,0-.55-.22,6.739,6.739,0,0,0,.464-2.165,2.894,2.894,0,0,0,.612.016.784.784,0,0,0,.171.382.17.17,0,0,0,.263-.086c.117-.109.116-.4.121-.551A1.942,1.942,0,0,0,48.506,145.179Zm-4.4,5.865a6.331,6.331,0,1,1,2.875-4.994A6.345,6.345,0,0,1,44.1,151.044Zm-6.257-8.371a.693.693,0,0,1-1.385,0A.693.693,0,0,1,37.845,142.673Zm1-1.363a.693.693,0,0,1,1.385,0A.693.693,0,0,1,38.85,141.31Zm3,.223a.693.693,0,0,1,1.385,0A.693.693,0,0,1,41.85,141.532Zm3.617,2.171a.693.693,0,0,1-1.385,0A.693.693,0,0,1,45.467,143.7Zm-3.807,0a.693.693,0,0,1-1.385,0A.693.693,0,0,1,41.66,143.7Zm.294,2.361a.693.693,0,0,1,1.385,0A.693.693,0,0,1,41.954,146.065Zm-3.8-.658a.693.693,0,0,1,1.385,0A.693.693,0,0,1,38.158,145.407Zm-.536,2.5a.693.693,0,0,1-1.385,0A.693.693,0,0,1,37.622,147.9Zm2.807,2.339a.693.693,0,0,1-1.385,0A.693.693,0,0,1,40.43,150.243Zm.9-2.687a.694.694,0,0,1-1.346.334.694.694,0,0,1,1.346-.334Zm-6.125-1.893a.693.693,0,0,1,1.385,0A.693.693,0,0,1,35.206,145.664Zm10.939.4a.693.693,0,0,1-1.385,0A.693.693,0,0,1,46.145,146.065Zm-1.968,3.12a.693.693,0,0,1-1.385,0A.693.693,0,0,1,44.177,149.184Z" transform="translate(326.905 267.759)"/></g></svg>