<svg xmlns="http://www.w3.org/2000/svg" width="37.937" height="37.937" viewBox="0 0 37.937 37.937"><defs><style>.a,.b,.d{fill:none;}.a,.b{stroke:#ba3126;}.a{stroke-width:0.6px;}.b{stroke-linecap:round;stroke-linejoin:round;stroke-width:0.5px;}.c{stroke:none;}</style></defs><g transform="translate(-305 -373)"><g transform="translate(305 373)"><g class="a"><circle class="c" cx="18.968" cy="18.968" r="18.968"/><circle class="d" cx="18.968" cy="18.968" r="18.668"/></g><g transform="translate(5.058 11.381)"><path class="b" d="M124.886,176.388l2.2-4.846c0-1.1-.888-1.542-1.983-1.542H107.483c-1.1,0-1.983.447-1.983,1.542l2.2,4.846Z" transform="translate(-101.094 -162.07)"/><g transform="translate(7.93 9.252)"><circle class="b" cx="1.983" cy="1.983" r="1.983" transform="translate(0 0)"/><circle class="b" cx="1.983" cy="1.983" r="1.983" transform="translate(5.287 0)"/><circle class="b" cx="1.983" cy="1.983" r="1.983" transform="translate(10.574 0)"/></g><path class="b" d="M131,152.2v2.2H112.5v-2.2h2.937l1.028-2.2h13.426" transform="translate(-106.552 -146.475)"/><rect class="b" width="3.525" height="2.203" transform="translate(22.69 3.525)"/><path class="b" d="M133.5,137.525,135.262,134h7.49v3.525" transform="translate(-122.926 -134)"/><line class="b" x2="14.583" transform="translate(8.812 5.728)"/><path class="b" d="M105.813,136.762H97.5V135h9.321" transform="translate(-94.857 -134.78)"/><rect class="b" width="2.643" height="2.203" transform="translate(0 0)"/></g></g></g></svg>