<svg xmlns="http://www.w3.org/2000/svg" width="20.285" height="18.257" viewBox="0 0 20.285 18.257"><defs><style>.a{fill:#b62317;}</style></defs><path class="a" d="M-380.729-188.957h-4.4v-1.352a1.692,1.692,0,0,0-1.69-1.69H-392.9a1.692,1.692,0,0,0-1.69,1.69v1.352h-4.4A1.014,1.014,0,0,0-400-187.943v7.526a1.019,1.019,0,0,0,.676.954v4.705a1.014,1.014,0,0,0,1.014,1.014h16.9a1.014,1.014,0,0,0,1.014-1.014v-4.7a1.019,1.019,0,0,0,.676-.955v-7.526A1.014,1.014,0,0,0-380.729-188.957Zm-13.185-1.352a1.014,1.014,0,0,1,1.014-1.014h6.086a1.014,1.014,0,0,1,1.014,1.014v1.352h-.676v-1.352a.338.338,0,0,0-.338-.338H-392.9a.338.338,0,0,0-.338.338v1.352h-.676Zm6.762,1.352h-5.409v-1.014h5.409Zm6.086,14.2a.338.338,0,0,1-.338.338h-16.9a.338.338,0,0,1-.338-.338v-4.589l7.438,1.026v.858a1.014,1.014,0,0,0,1.014,1.014h.676a1.014,1.014,0,0,0,1.014-1.014v-.858l7.438-1.026Zm-8.114-2.7a.338.338,0,0,1-.338.338h-.676a.338.338,0,0,1-.338-.338v-2.029a.338.338,0,0,1,.338-.338h.676a.338.338,0,0,1,.338.338Zm8.79-2.955a.338.338,0,0,1-.291.335l-.094.013L-388.5-179v-.487a1.014,1.014,0,0,0-1.014-1.014h-.676a1.014,1.014,0,0,0-1.014,1.014V-179l-7.823-1.079a.338.338,0,0,1-.291-.335v-7.526a.338.338,0,0,1,.338-.338h18.257a.338.338,0,0,1,.338.338Z" transform="translate(400 192)"/></svg>