<svg xmlns="http://www.w3.org/2000/svg" width="25" height="25" viewBox="0 0 25 25"><defs><style>.a{fill:rgba(0,0,0,0);}.b{fill:#b62317;}</style></defs><rect class="a" width="25" height="25"/><g transform="translate(0.729 2.174)"><g transform="translate(0)"><path class="b" d="M7.868,18.935a1.528,1.528,0,0,1-1.507-1.156A1.549,1.549,0,0,1,7.49,15.973l4.139-.978L8.883,11.646,2.524,17.7a1.453,1.453,0,0,1-1.032.433,1.483,1.483,0,0,1-1.075-.471A1.524,1.524,0,0,1,0,16.592a1.438,1.438,0,0,1,.454-1.033L2.222,13.9c3.336-3.132,6.785-6.371,10.047-9.664l-.9-.79L8.431,5.814a1.56,1.56,0,0,1-.943.318,1.5,1.5,0,0,1-1.164-.544A1.458,1.458,0,0,1,6,4.492a1.523,1.523,0,0,1,.55-1.011L10.462.32A1.4,1.4,0,0,1,11.379,0a1.559,1.559,0,0,1,1,.358l5.267,4.59a1.523,1.523,0,0,1,.527,1.128v3.951L22.5,9.8h.075a1.5,1.5,0,0,1,1.114,2.519,1.483,1.483,0,0,1-1.039.492l-5.983.338a1.507,1.507,0,0,1-1.505-1.505V9.351l-2.333,2.295,2.558,3.424a1.49,1.49,0,0,1,.2,1.418,1.458,1.458,0,0,1-1.063.914L8.167,18.907A1.674,1.674,0,0,1,7.868,18.935Zm.517-9.842h0l-.369.37,4.59,5.531a.37.37,0,0,1,.078.35.384.384,0,0,1-.266.252L7.678,16.688a.75.75,0,0,0,.182,1.482.88.88,0,0,0,.156-.014l6.359-1.505a.714.714,0,0,0,.5-.458.753.753,0,0,0-.084-.709L12.043,11.8a.354.354,0,0,1,.038-.489l3.2-3.161a.365.365,0,0,1,.26-.107.372.372,0,0,1,.379.371v3.2a.753.753,0,0,0,.753.752h.075l5.87-.3a.779.779,0,0,0,.548-.29.675.675,0,0,0,.129-.537.654.654,0,0,0-.212-.476.728.728,0,0,0-.5-.2h-.038l-4.7.264a.388.388,0,0,1-.414-.377V6.077a.8.8,0,0,0-.263-.564L11.893.923A.8.8,0,0,0,11.38.733a.648.648,0,0,0-.429.152l-3.913,3.2a.734.734,0,0,0-.282.515.716.716,0,0,0,.17.539.816.816,0,0,0,.607.274.667.667,0,0,0,.446-.161l3.2-2.559a.4.4,0,0,1,.489,0l1.392,1.2a.329.329,0,0,1,.159.243.39.39,0,0,1-.121.321C9.629,7.876,8.681,8.8,8.425,9.054l.063-.065-.079.077-.076.077Zm-.932.86h0c-.437.416-4.328,4.126-6.472,6.133a.764.764,0,0,0-.038,1.054A.763.763,0,0,0,2,17.177l6.4-6.058L7.453,9.952Z" transform="translate(0 1.749)"/><path class="b" d="M2.483,4.967a2.506,2.506,0,1,1,1.75-.734A2.463,2.463,0,0,1,2.483,4.967Zm0-4.214A1.754,1.754,0,0,0,.752,2.483,1.754,1.754,0,0,0,2.483,4.214,1.754,1.754,0,0,0,4.214,2.483,1.754,1.754,0,0,0,2.483.752Z" transform="translate(15.655 0)"/><path class="b" d="M.376.753H2.784A.355.355,0,0,0,3.161.376.355.355,0,0,0,2.784,0H.376A.355.355,0,0,0,0,.376.377.377,0,0,0,.376.753Z" transform="translate(3.577)"/><path class="b" d="M.376,0A.355.355,0,0,0,0,.376.355.355,0,0,0,.376.753H2.784A.355.355,0,0,0,3.161.376.355.355,0,0,0,2.784,0Z" transform="translate(2.072 8.992)"/><path class="b" d="M2.784,0H.376A.355.355,0,0,0,0,.376.355.355,0,0,0,.376.753H2.784A.355.355,0,0,0,3.161.376.355.355,0,0,0,2.784,0Z" transform="translate(19.267 18.135)"/><path class="b" d="M.376.753H2.784A.355.355,0,0,0,3.161.376.355.355,0,0,0,2.784,0H.376A.355.355,0,0,0,0,.376.377.377,0,0,0,.376.753Z" transform="translate(0.417 3.838)"/></g></g></svg>