<svg id="logo" xmlns="http://www.w3.org/2000/svg" width="138.025" height="16.422" viewBox="0 0 138.025 16.422">
  <path id="Shape" d="M8.14,16.28a8.14,8.14,0,1,1,8.14-8.14A8.149,8.149,0,0,1,8.14,16.28Zm0-15.5A7.356,7.356,0,0,0,.778,8.14,7.355,7.355,0,0,0,8.14,15.5,7.364,7.364,0,0,0,13.36,2.946,7.3,7.3,0,0,0,8.14.778Z" transform="translate(0 0)" fill="#b62317"/>
  <path id="Shape-2" data-name="Shape" d="M5.733,8.034H4.955V5.556H1.133A1.293,1.293,0,0,1,0,4.282V4.141A4.826,4.826,0,0,1,1.628,1.38a1.2,1.2,0,0,1,.727-.24,1.32,1.32,0,0,1,.264.027A1.182,1.182,0,0,1,3.256.389.246.246,0,0,1,3.4.319,5.637,5.637,0,0,1,5.282,0,6.108,6.108,0,0,1,7.22.319,1.541,1.541,0,0,1,8,1.168a1.351,1.351,0,0,1,.264-.027,1.2,1.2,0,0,1,.727.24c.4.395.843.842,1.133,1.2a4.082,4.082,0,0,1,.566,1.557v.283a1.207,1.207,0,0,1-1.153,1.14,1.161,1.161,0,0,1-.121-.007H5.733V8.033ZM8.326,2.062a.4.4,0,0,0-.4.239L6.583,4.636v.071a.188.188,0,0,0,.213.212h2.69A.261.261,0,0,0,9.7,4.849a.615.615,0,0,0,.213-.425A3.769,3.769,0,0,0,8.564,2.159a.068.068,0,0,0-.018-.05.082.082,0,0,0-.052-.021A.537.537,0,0,0,8.326,2.062ZM2.363,1.94a.428.428,0,0,0-.24.077A3.932,3.932,0,0,0,.778,4.353v.142a.4.4,0,0,0,.425.354H3.822a.087.087,0,0,0,.062.029c.05,0,.1-.051.15-.1.071-.071.071-.142.071-.283L2.76,2.159,2.69,2.088A.468.468,0,0,0,2.363,1.94ZM3.539,1.1h0a.07.07,0,0,1-.071.071.546.546,0,0,0-.141.708l1.7,2.832a.4.4,0,0,1,.058.077c.023.038.04.065.084.065.139,0,.283,0,.354-.141L7.149,1.8a.07.07,0,0,0,.071-.071A.522.522,0,0,0,6.937,1.1a5.352,5.352,0,0,0-3.327,0H3.539Z" transform="translate(2.831 4.07)" fill="#b62317"/>
  <path id="Path" d="M9.98,8.14,6.016,0H0V16.28H6.016V8.14L9.98,16.28l3.964-8.14v8.14h6.016V0H13.944Z" transform="translate(23.57 0.071)" fill="#b62317"/>
  <path id="Shape-3" data-name="Shape" d="M6.016,16.351H0L4.671,0H15.289l4.742,16.35H14.015l-.778-2.69H6.8l-.779,2.69ZM10.051,2.477,7.574,10.971h4.955Z" transform="translate(45.513 0.071)" fill="#b62317"/>
  <path id="Shape-4" data-name="Shape" d="M6.016,16.28H0V0H11.255a4.742,4.742,0,0,1,0,9.485H6.016v6.795ZM6.088,1.84V6.725H7.432A2.661,2.661,0,0,0,9.352,5.91a2.52,2.52,0,0,0,.7-1.876,1.961,1.961,0,0,0-.84-1.654,3.183,3.183,0,0,0-1.849-.54Z" transform="translate(67.455 0.071)" fill="#b62317"/>
  <path id="Path-2" data-name="Path" d="M0,16.28H6.016v-6.8H16V6.8H6.016V2.69H16V0H0Z" transform="translate(85.576 0.071)" fill="#b62317"/>
  <path id="Path-3" data-name="Path" d="M16.068,2.69V0H0V16.28H16.068V13.661H6.016V9.485H16.068V6.8H6.016V2.69Z" transform="translate(121.958 0.071)" fill="#b62317"/>
  <path id="Shape-5" data-name="Shape" d="M16.067,16.351H10.122V12.245a2.693,2.693,0,0,0-2.69-2.69H6.158V16.28H0V0H11.962a4.105,4.105,0,0,1,0,8.211,4.054,4.054,0,0,1,2.822,1.15A4.193,4.193,0,0,1,16.067,12.1V16.35ZM6.158,1.911V6.8H7.432a2.693,2.693,0,0,0,2.69-2.69,1.961,1.961,0,0,0-.84-1.654,3.183,3.183,0,0,0-1.849-.54Z" transform="translate(103.696 0)" fill="#b62317"/>
</svg>
