<svg id="footer-master" xmlns="http://www.w3.org/2000/svg" width="112" height="40" viewBox="0 0 112 40">
  <g id="Grupo_3095" data-name="Grupo 3095" transform="translate(0.659)">
    <g id="Grupo_3094" data-name="Grupo 3094" transform="translate(105.224 13.428)">
      <path id="Trazado_1514" data-name="Trazado 1514" d="M112.5,16.47a2.079,2.079,0,1,1,2.071,2.27,2.2,2.2,0,0,1-2.071-2.27Zm2.071,1.7a1.705,1.705,0,1,0-1.6-1.7,1.674,1.674,0,0,0,1.6,1.7Zm-.282-.756h-.471V15.429h.753a.7.7,0,0,1,.471.095.537.537,0,0,1,0,.946l.376.851h-.565l-.282-.756h-.282v.851Zm0-1.04h.565a.294.294,0,0,0,.094-.189c0-.095,0-.189-.094-.189h-.565v.378Z" transform="translate(-112.5 -14.2)" fill="#ca262b"/>
    </g>
    <path id="Trazado_1515" data-name="Trazado 1515" d="M79.653.946l-.565,3.783a6.45,6.45,0,0,0-3.2-.946c-2.635,0-4.518,2.648-4.518,6.525,0,2.648,1.224,4.255,3.294,4.255a7.333,7.333,0,0,0,3.012-.851l-.659,3.972a10.321,10.321,0,0,1-3.106.473c-3.765,0-6.212-2.837-6.212-7.47C67.888,4.35,71.088,0,75.794,0a7.431,7.431,0,0,1,1.6.189l1.412.378a3.681,3.681,0,0,1,.847.378Z" transform="translate(-4.641)" fill="#ca262b"/>
    <path id="Trazado_1516" data-name="Trazado 1516" d="M67.477,3.7H67.1c-1.129,0-1.788.662-2.918,2.27l.282-2.175h-3.2L59.1,17.979h3.576c1.224-8.605,1.6-10.118,3.294-10.118h.282a13.73,13.73,0,0,1,1.318-4.066L67.477,3.7Z" transform="translate(-4.135 -0.201)" fill="#ca262b"/>
    <path id="Trazado_1517" data-name="Trazado 1517" d="M45.265,17.676a8.545,8.545,0,0,1-2.541.473c-1.788,0-2.824-1.135-2.824-3.121a5.416,5.416,0,0,1,.094-1.229l.188-1.418.188-1.135L41.876,1.6h3.482l-.376,2.08h1.788l-.471,3.4H44.512l-.941,5.863a3.358,3.358,0,0,1-.094.567c0,.757.376,1.04,1.224,1.04a2.611,2.611,0,0,0,.941-.095l-.376,3.215Z" transform="translate(-3.006 -0.087)" fill="#ca262b"/>
    <path id="Trazado_1518" data-name="Trazado 1518" d="M30.712,8.217a4.224,4.224,0,0,0,2.635,3.972c1.412.756,1.6.946,1.6,1.513,0,.851-.659,1.324-1.976,1.324a9.943,9.943,0,0,1-3.2-.567l-.471,3.31h.188l.659.095c.188,0,.471.095.941.095a16.728,16.728,0,0,0,1.976.095c3.671,0,5.365-1.513,5.365-4.728a4.022,4.022,0,0,0-2.447-3.972c-1.506-.662-1.6-.851-1.6-1.513q0-1.135,1.694-1.135c.659,0,1.6.095,2.541.189l.471-3.31A18.056,18.056,0,0,0,35.982,3.3c-3.953.189-5.271,2.364-5.271,4.917Z" transform="translate(-2.382 -0.179)" fill="#ca262b"/>
    <path id="Trazado_1519" data-name="Trazado 1519" d="M109.635,17.794h-3.294l.188-1.418a4,4,0,0,1-3.294,1.608c-2.541,0-4.235-2.364-4.235-5.863,0-4.728,2.635-8.7,5.741-8.7a3.876,3.876,0,0,1,3.388,1.891L108.882.3h3.482l-2.729,17.494Zm-5.176-3.31c1.694,0,2.824-1.986,2.824-4.728,0-1.8-.659-2.742-1.882-2.742-1.6,0-2.729,1.986-2.729,4.728-.094,1.8.565,2.742,1.788,2.742Z" transform="translate(-6.482 -0.016)" fill="#ca262b"/>
    <path id="Trazado_1520" data-name="Trazado 1520" d="M56.794,17.684a11.918,11.918,0,0,1-3.671.567c-3.953,0-6.024-2.175-6.024-6.336,0-4.823,2.635-8.416,6.212-8.416,2.918,0,4.8,1.986,4.8,5.106a12.831,12.831,0,0,1-.471,3.5H50.582v.473c0,1.608,1.035,2.459,3.106,2.459a7.852,7.852,0,0,0,3.671-.946l-.565,3.593ZM54.818,9.268V8.512a1.613,1.613,0,0,0-1.694-1.8c-1.129,0-1.882.946-2.259,2.553Z" transform="translate(-3.429 -0.19)" fill="#ca262b"/>
    <path id="Trazado_1521" data-name="Trazado 1521" d="M14.912,17.8H11.335L13.406,4.372,8.888,17.8H6.441L6.159,4.466,3.994,17.8H.7L3.429.4H8.512L8.7,11.18,12.088.4h5.553Z" transform="translate(-0.7 -0.022)" fill="#ca262b"/>
    <path id="Trazado_1522" data-name="Trazado 1522" d="M24.953,11.627c-.376,0-.565-.095-.753-.095-1.976,0-3.012.756-3.012,2.175,0,.851.471,1.418,1.224,1.418,1.412.095,2.447-1.418,2.541-3.5Zm2.541,6.336H24.576l.094-1.513A4.3,4.3,0,0,1,21,18.152c-1.882,0-3.2-1.608-3.2-3.877,0-3.5,2.259-5.485,6.212-5.485a7.573,7.573,0,0,1,1.412.095,2.93,2.93,0,0,0,.094-.851c0-.946-.659-1.324-2.259-1.324a12.876,12.876,0,0,0-2.918.378l-.471.189-.282.095.471-3.215A12.934,12.934,0,0,1,24.294,3.4c3.012,0,4.612,1.418,4.612,4.161a27.1,27.1,0,0,1-.282,2.837l-.753,5.012-.094.946-.094.756-.094.473-.094.378Z" transform="translate(-1.706 -0.185)" fill="#ca262b"/>
    <path id="Trazado_1523" data-name="Trazado 1523" d="M86.453,11.632c-.376,0-.565-.095-.753-.095-1.976,0-3.012.757-3.012,2.175a1.266,1.266,0,0,0,1.318,1.418c1.318.095,2.353-1.418,2.447-3.5Zm2.541,6.336H86.076l.094-1.513a4.3,4.3,0,0,1-3.671,1.7c-1.882,0-3.2-1.608-3.2-3.877,0-3.5,2.259-5.485,6.212-5.485a7.573,7.573,0,0,1,1.412.095,3.935,3.935,0,0,0,.094-.946c0-.946-.659-1.324-2.259-1.324a20.012,20.012,0,0,0-2.918.567l-.471.189-.282.095.471-3.215A12.934,12.934,0,0,1,85.794,3.5c2.918,0,4.518,1.418,4.518,4.161a27.106,27.106,0,0,1-.282,2.837l-.659,4.917-.094.946-.094.757-.094.473-.094.378Z" transform="translate(-5.324 -0.19)" fill="#ca262b"/>
    <path id="Trazado_1524" data-name="Trazado 1524" d="M99.582,3.7h-.376c-1.129,0-1.788.662-2.918,2.27l.376-2.175h-3.2L91.3,17.979h3.482c1.224-8.605,1.6-10.118,3.294-10.118h.282a13.729,13.729,0,0,1,1.318-4.066L99.582,3.7Z" transform="translate(-6.029 -0.201)" fill="#ca262b"/>
  </g>
  <g id="Grupo_3097" data-name="Grupo 3097" transform="translate(0 21.655)">
    <path id="Trazado_1525" data-name="Trazado 1525" d="M83.912,32.936c0,3.215-.941,5.106-2.541,5.106-1.129,0-1.788-1.229-1.788-3.121,0-2.269,1.035-4.823,2.635-4.823,1.224,0,1.694,1.324,1.694,2.837Zm3.482,0c0-3.593-1.788-6.336-5.082-6.336-3.765,0-6.212,3.4-6.212,8.322,0,3.593,1.412,6.43,5.082,6.43,3.576.095,6.212-2.459,6.212-8.416Z" transform="translate(-4.477 -23.101)" fill="#e09431"/>
    <path id="Trazado_1526" data-name="Trazado 1526" d="M76.618,23.951l-.565,3.783a5.806,5.806,0,0,0-2.918-.946c-2.447,0-4.141,2.648-4.141,6.525,0,2.648,1.129,4.255,3.106,4.255a6.29,6.29,0,0,0,2.824-.851l-.565,3.972a8.869,8.869,0,0,1-2.918.473c-3.576,0-5.741-2.837-5.741-7.47,0-6.241,3.012-10.591,7.435-10.591a7.282,7.282,0,0,1,1.506.189l1.318.378c.188.095.282.095.659.284Z" transform="translate(-3.865 -22.911)" fill="#e09431"/>
    <path id="Trazado_1527" data-name="Trazado 1527" d="M53.618,26.7h-.376c-1.035,0-1.694.662-2.729,2.27l.282-2.175H47.876L45.9,40.979h3.294c1.224-8.7,1.506-10.118,3.106-10.118h.282a13.843,13.843,0,0,1,1.224-4.066l-.188-.095Z" transform="translate(-2.7 -23.107)" fill="#e09431"/>
    <path id="Trazado_1528" data-name="Trazado 1528" d="M99.182,40.7H96.076l.188-1.418a3.749,3.749,0,0,1-3.012,1.608c-2.353,0-3.953-2.364-3.953-5.863,0-4.728,2.447-8.7,5.365-8.7a3.61,3.61,0,0,1,3.2,1.986l.753-5.012h3.2L99.182,40.7Zm-4.894-3.4c1.506,0,2.635-1.986,2.635-4.728,0-1.8-.565-2.742-1.788-2.742-1.506,0-2.541,1.986-2.541,4.728,0,1.891.565,2.742,1.694,2.742Z" transform="translate(-5.253 -22.922)" fill="#e09431"/>
    <path id="Trazado_1529" data-name="Trazado 1529" d="M20.741,40.784a10.2,10.2,0,0,1-3.388.567c-3.671,0-5.553-2.175-5.553-6.336,0-4.823,2.447-8.416,5.741-8.416,2.729,0,4.424,1.986,4.424,5.106a17.1,17.1,0,0,1-.376,3.5H15v.473c0,1.608.941,2.459,2.918,2.459a7.2,7.2,0,0,0,3.388-.851l-.565,3.5Zm-1.882-8.416v-.756c0-1.135-.565-1.8-1.6-1.8s-1.788.946-2.071,2.553Z" transform="translate(-0.694 -23.101)" fill="#e09431"/>
    <path id="Trazado_1530" data-name="Trazado 1530" d="M62.335,40.784a10.613,10.613,0,0,1-3.388.567c-3.671,0-5.647-2.175-5.647-6.336,0-4.823,2.447-8.416,5.741-8.416,2.729,0,4.424,1.986,4.424,5.106a17.1,17.1,0,0,1-.376,3.5H56.5v.473c0,1.608.941,2.459,2.918,2.459a7.2,7.2,0,0,0,3.388-.851l-.471,3.5Zm-1.882-8.416v-.756c0-1.135-.565-1.8-1.6-1.8s-1.788.946-2.071,2.553Z" transform="translate(-3.135 -23.101)" fill="#e09431"/>
    <path id="Trazado_1531" data-name="Trazado 1531" d="M111.135,40.784a10.613,10.613,0,0,1-3.388.567c-3.671,0-5.647-2.175-5.647-6.336,0-4.823,2.447-8.416,5.741-8.416,2.729,0,4.424,1.986,4.424,5.106a17.1,17.1,0,0,1-.376,3.5H105.3v.473c0,1.608.941,2.459,2.918,2.459a7.2,7.2,0,0,0,3.388-.851l-.471,3.5Zm-1.788-8.416v-.756c0-1.135-.565-1.8-1.6-1.8s-1.788.946-2.071,2.553Z" transform="translate(-6.006 -23.101)" fill="#e09431"/>
    <path id="Trazado_1532" data-name="Trazado 1532" d="M10.259,27.155A5.217,5.217,0,0,0,7.529,26.4c-1.318,0-2.447.284-2.447,1.7,0,2.553,4.894,1.608,4.894,7,0,4.917-3.2,6.147-6.118,6.147A10.532,10.532,0,0,1,0,40.3l.753-3.593a5.313,5.313,0,0,0,3.106,1.04c1.035,0,2.635-.284,2.635-2.08,0-2.837-4.894-1.8-4.894-6.809,0-4.539,2.824-5.957,5.553-5.957a7.592,7.592,0,0,1,3.859.757l-.753,3.5Z" transform="translate(0 -22.9)" fill="#e09431"/>
    <path id="Trazado_1533" data-name="Trazado 1533" d="M31.024,40.784a7.2,7.2,0,0,1-2.918.567c-2.918,0-4.706-2.931-4.706-6.43,0-4.634,2.541-8.322,6.4-8.322a7.248,7.248,0,0,1,3.106.946l-.753,3.4a4,4,0,0,0-2.165-.756c-1.788,0-3.012,1.608-3.012,4.539,0,1.7.941,3.026,2.353,3.026a3.462,3.462,0,0,0,2.165-.662l-.471,3.688Z" transform="translate(-1.376 -23.101)" fill="#e09431"/>
    <path id="Trazado_1534" data-name="Trazado 1534" d="M43.959,37.213c-.188,1.229-.282,2.364-.376,3.688h-3.2l.282-2.27h0c-1.035,1.608-2.071,2.648-3.859,2.648-1.976,0-3.106-2.08-3.106-4.823a20.066,20.066,0,0,1,.282-2.931L34.924,27h3.482l-.941,6.525a15.592,15.592,0,0,0-.188,2.175c0,.851.376,1.7,1.318,1.608,1.412,0,2.259-1.8,2.541-3.877L42.076,27h3.388L43.959,37.213Z" transform="translate(-1.982 -23.123)" fill="#e09431"/>
    <g id="Grupo_3096" data-name="Grupo 3096" transform="translate(107.106 14.752)">
      <path id="Trazado_1535" data-name="Trazado 1535" d="M115.118,41.337h-.471V39.067H113.8V38.5h2.071v.567h-.753Z" transform="translate(-113.8 -38.5)" fill="#e09431"/>
      <path id="Trazado_1536" data-name="Trazado 1536" d="M118.841,41.337h-.565V38.973h0l-.471,2.364h-.471l-.471-2.364h0v2.364H116.3V38.5h.847l.471,2.27h0l.471-2.27h.753Z" transform="translate(-113.947 -38.5)" fill="#e09431"/>
    </g>
  </g>
</svg>
