<svg id="footer-visa" xmlns="http://www.w3.org/2000/svg" width="92" height="40" viewBox="0 0 92 40">
  <path id="Trazado_1537" data-name="Trazado 1537" d="M42.782,25.731h5.011L40.4,44.034H35.389L31.2,27.967c2.875,1.325,5.339,4.638,6.489,7.7l.493,2.567,4.6-12.505Zm3.943,18.3h4.682l2.957-18.385H49.682L46.725,44.034ZM68.493,26.145A12.286,12.286,0,0,0,64.3,25.4c-4.682,0-7.968,2.484-7.968,6.046,0,2.65,2.3,4.141,4.107,4.969,1.807.911,2.464,1.491,2.464,2.319,0,1.242-1.479,1.822-2.793,1.822a8.763,8.763,0,0,1-4.436-.994L55.1,39.23l-.657,4.141a13.781,13.781,0,0,0,5.257.994c4.929,0,8.132-2.484,8.214-6.294,0-2.07-1.232-3.644-3.943-4.969-1.643-.828-2.629-1.408-2.629-2.319,0-.745.821-1.573,2.711-1.573a8.028,8.028,0,0,1,3.532.745L68,30.2l.493-4.058Zm12.075-.414,3.779,18.385H79.993s-.411-2.07-.575-2.733h-6c-.164.5-.986,2.733-.986,2.733H67.507L74.489,27.3a2.233,2.233,0,0,1,2.464-1.491h3.614ZM74.736,37.574h3.943c-.164-.911-1.068-5.3-1.068-5.3L77.282,30.7c-.246.663-.657,1.822-.657,1.739,0,0-1.479,4.058-1.889,5.135Z" transform="translate(-5.571 -4.365)" fill="#2e5293"/>
  <path id="Trazado_1538" data-name="Trazado 1538" d="M32.739,25.7H25.182l-.082.331a15.9,15.9,0,0,1,11.418,9.689l-1.643-8.447c-.246-1.159-1.068-1.491-2.136-1.574Z" transform="translate(-4.482 -4.416)" fill="#e2a527"/>
  <path id="Trazado_1539" data-name="Trazado 1539" d="M6.489,16.894H3.45L0,1.159,3.286.58l2.382,12.34,6-12.174h3.2L6.489,16.894ZM22.1,11.76a2.577,2.577,0,0,1,.164-.663c.493-3.23-.657-5.714-3.943-5.714-2.875,0-5.421,2.236-6,5.88-.657,4.058,1.479,5.88,4.518,5.88a8.038,8.038,0,0,0,4.682-1.408V13.582A7.883,7.883,0,0,1,17.5,14.99c-1.725,0-2.711-.994-2.546-3.147H22.1ZM17.825,7.288c1.314,0,1.889.994,1.807,2.733H15.2c.493-1.9,1.561-2.733,2.629-2.733Zm8.954,3.064A5.911,5.911,0,0,1,31.05,8.116V5.383a5.141,5.141,0,0,0-3.943,2.484V5.631H24.725L23,16.812h2.793l.986-6.46Zm4.189,6.46h2.793L35.486,5.549H32.693L30.968,16.812Zm3.45-13.168A1.938,1.938,0,0,0,36.307,2.07a1.347,1.347,0,0,0-1.4-1.656A1.935,1.935,0,0,0,33.021,2.07a1.285,1.285,0,0,0,1.4,1.573Zm8.707-1.159c.493,0,.9.083,1.15.083V.248a4.33,4.33,0,0,0-1.15-.083c-2.3,0-4.025.911-4.354,3.4l-.329,1.9H36.8l-.329,2.319h1.643l-1.4,8.944h2.711l1.4-8.944h2.464V5.466H41.154L41.4,3.81a1.615,1.615,0,0,1,1.725-1.325Zm.082,14.327H46L47.643,5.549H44.85L43.207,16.812ZM46.575,3.644A1.938,1.938,0,0,0,48.464,2.07a1.347,1.347,0,0,0-1.4-1.656A1.935,1.935,0,0,0,45.179,2.07a1.285,1.285,0,0,0,1.4,1.573ZM58.4,11.76a2.578,2.578,0,0,1,.164-.663c.493-3.23-.657-5.714-3.943-5.714-2.875,0-5.421,2.236-6,5.88-.657,4.058,1.479,5.88,4.518,5.88a8.038,8.038,0,0,0,4.682-1.408V13.582A7.883,7.883,0,0,1,53.8,14.99c-1.725,0-2.711-.994-2.546-3.147H58.4ZM54.214,7.288c1.314,0,1.889.994,1.807,2.733H51.586c.493-1.9,1.479-2.733,2.629-2.733Zm12.4,9.524H69L71.546,0,68.671.414,67.85,5.88A7.11,7.11,0,0,0,65.3,5.466c-2.546,0-5.175,1.822-5.832,6.046-.575,3.81.986,5.549,3.368,5.549a5.008,5.008,0,0,0,3.7-1.822l.082,1.573Zm.9-8.613L66.782,13a4.063,4.063,0,0,1-2.793,1.573c-1.232,0-1.971-.994-1.643-3.23C62.757,8.861,63.989,7.7,65.386,7.7a3.887,3.887,0,0,1,2.136.5Zm9.939,8.7c2.546,0,4.436-1.491,4.929-4.638.411-2.816-.739-4.224-2.546-4.224A3.693,3.693,0,0,0,77.3,9.193l.821-5.135-2.136.331L74.175,16.315a7.792,7.792,0,0,0,3.286.58Zm1.561-6.874c.986,0,1.479.828,1.232,2.484-.329,1.9-1.232,2.733-2.546,2.733a3.106,3.106,0,0,1-1.314-.248l.575-3.892a3.136,3.136,0,0,1,2.054-1.077ZM87.4,17.308,92,8.364H89.946l-2.793,5.963L86.086,8.282l-2.218.248,1.807,8.364-.246.58a1.729,1.729,0,0,1-1.479.911c-.411,0-.657-.083-.986-.083v1.739a1.809,1.809,0,0,0,.739.083c1.561-.083,2.546-.745,3.7-2.816Z" fill="#2e5293"/>
</svg>
