<svg xmlns="http://www.w3.org/2000/svg" width="253" height="30" viewBox="0 0 253 30">
  <g id="Page-1" transform="translate(-0.49 -0.48)">
    <g id="AF_MAPFRE_POS_H_RGB" transform="translate(0.49 0.48)">
      <path id="Shape" d="M18.542,10.108a.91.91,0,0,1,.562.843.942.942,0,0,1-.173.535l-3.07,5.267a.444.444,0,0,1-.4.254.47.47,0,0,1-.422-.265L11.991,11.48a.882.882,0,0,1-.168-.529.92.92,0,0,1,.524-.827,8.745,8.745,0,0,1,3.113-.573,8.854,8.854,0,0,1,3.043.535Zm-9,1.723a.742.742,0,0,1,.822-.049.778.778,0,0,1,.308.34l2.465,4.295a.4.4,0,0,1,.022.394A.406.406,0,0,1,12.8,17l-4.956.011a.684.684,0,0,1-.432-.1A.766.766,0,0,1,7.03,16.2a7.222,7.222,0,0,1,.87-2.415A7.32,7.32,0,0,1,9.51,11.847Zm11.836,0a.753.753,0,0,0-.827-.049.734.734,0,0,0-.3.34l-2.47,4.295a.36.36,0,0,0-.016.394.4.4,0,0,0,.351.184l4.956.011a.692.692,0,0,0,.438-.1.751.751,0,0,0,.373-.713,7.2,7.2,0,0,0-.859-2.415A7.356,7.356,0,0,0,21.4,11.847Zm-5.189,6.645v4.581H14.726V18.476c-.7-.005-1.627-.005-1.962-.016l-4.875.011a2.207,2.207,0,0,1-2.324-2.3,2.328,2.328,0,0,1,.027-.3A8.605,8.605,0,0,1,8.57,10.729a2.5,2.5,0,0,1,1.87-.454,2.356,2.356,0,0,1,1.194-1.432,1.542,1.542,0,0,1,.286-.14,10.487,10.487,0,0,1,3.529-.61A10.156,10.156,0,0,1,19,8.719a2.692,2.692,0,0,1,1.443,1.545,2.143,2.143,0,0,1,1.794.389,9.457,9.457,0,0,1,2.048,2.393,8.752,8.752,0,0,1,1.032,2.825c.011.086.022.189.027.3a2.226,2.226,0,0,1-1.1,2.01,2.171,2.171,0,0,1-1.216.292l-4.875-.011C17.812,18.471,16.888,18.471,16.191,18.476ZM15.456,2.042A13.539,13.539,0,1,0,29,15.575,13.54,13.54,0,0,0,15.456,2.042Zm0-1.432A14.965,14.965,0,1,1,.49,15.569,14.969,14.969,0,0,1,15.456.61Z" transform="translate(-0.49 -0.54)" fill="#d81e05" fill-rule="evenodd"/>
      <path id="Path" d="M90.29.48l7.323,15,7.334-15h11.069v30H104.947v-15l-7.334,15-7.323-15v15H79.21V.48Z" transform="translate(-36.664 -0.48)" fill="#d81e05"/>
      <path id="Shape-2" data-name="Shape" d="M172.3,4.98l-4.5,15.646h8.993ZM153.89,30.48l8.62-30h19.581l8.61,30H179.627l-1.421-4.927h-11.82L164.97,30.48Z" transform="translate(-70.982 -0.48)" fill="#d81e05"/>
      <path id="Shape-3" data-name="Shape" d="M242.2,3.951c2.5,0,4.929,1.334,4.929,4.052a4.88,4.88,0,0,1-4.929,4.922h-2.4V3.957h2.4ZM249.272.51a8.744,8.744,0,1,1,0,17.488H239.62v12.5H228.54V.51Z" transform="translate(-105.286 -0.494)" fill="#d81e05" fill-rule="evenodd"/>
      <path id="Path-2" data-name="Path" d="M290.2.48h29.445V5.412H301.274v7.623h18.371v4.922H301.274V30.48H290.2Z" transform="translate(-133.62 -0.48)" fill="#d81e05"/>
      <path id="Path-3" data-name="Path" d="M425.18,25.553h18.376V30.48H414.1V.48h29.456V5.412H425.18v7.623h18.376v4.922H425.18Z" transform="translate(-190.556 -0.48)" fill="#d81e05"/>
      <path id="Shape-4" data-name="Shape" d="M365.519,3.951c2.438,0,4.929,1.334,4.929,4.052a4.921,4.921,0,0,1-4.929,4.922h-2.394V3.951Zm15.814,18.8V23C381.333,22.914,381.338,22.833,381.333,22.752Zm0,.243v7.5h-10.9V23.238c0-.081.005-.167.005-.243a4.932,4.932,0,0,0-4.929-4.922h-2.394v12.42H351.85V.51h21.981a7.493,7.493,0,1,1,0,14.986,7.506,7.506,0,0,1,7.5,7.256C381.338,22.833,381.333,22.914,381.333,23Z" transform="translate(-161.95 -0.494)" fill="#d81e05" fill-rule="evenodd"/>
    </g>
  </g>
</svg>
