<svg xmlns="http://www.w3.org/2000/svg" width="68.923" height="23.896" viewBox="0 0 68.923 23.896"><defs><style>.a{fill:#006cb2;}</style></defs><g transform="translate(0 -0.76)"><path class="a" d="M1.257,0,0,3.067H2.522L1.257,0Z" transform="translate(49.511 3.58)"/><path class="a" d="M.353.383h0Z" transform="translate(35.811 5.045)"/><path class="a" d="M3.12,1.556A.767.767,0,0,0,3.5.836.69.69,0,0,0,3.12.153,1.763,1.763,0,0,0,2.239.008H0v1.71H2.239a1.725,1.725,0,0,0,.882-.161Z" transform="translate(33.028 3.879)"/><path class="a" d="M.418.364.349.4Z" transform="translate(43.635 18.205)"/><path class="a" d="M3.12.155A1.633,1.633,0,0,0,2.254.009H0V1.742H2.216a1.756,1.756,0,0,0,.9-.161A.828.828,0,0,0,3.5.814.767.767,0,0,0,3.12.155Z" transform="translate(40.856 17.034)"/><path class="a" d="M2.4,0H0V1.94H2.361c.721,0,1.158-.337,1.158-1S3.067,0,2.4,0Z" transform="translate(32.668 17.066)"/><path class="a" d="M0,0V1.388H4.025V2.959H0V4.493H4.508L6.6,2.239,4.6,0Z" transform="translate(19.075 17.043)"/><path class="a" d="M5.788,10.741H0L2.652,5.09,4.876.007H9.653l.613,1.265V.007h5.6L17.1,2.767,18.3.007H36.079C36.133,0,36.2,0,36.28,0a3.083,3.083,0,0,1,1.869.634V.007h4.868V.635A6.379,6.379,0,0,1,45.783,0c.09,0,.186,0,.3.007H53.13l.652,1.265V.007h5.252l.7,1.265V.007h5.083V10.695H59.677L58.7,9.076v1.618H52.286L51.582,9H49.994l-.72,1.695H45.939l-.151,0A6.347,6.347,0,0,1,43,10.05v.644H35.06V8.264c0-.36-.068-.36-.268-.36H34.5v2.791H19.22V9.361l-.567,1.334h-3.19l-.544-1.3V10.74H8.786l-.7-1.695H6.493l-.706,1.695ZM33.013,6.385h1.962c.658,0,1.066.053,1.335.33A2.31,2.31,0,0,1,36.6,8.211V9.238h1.863V7.7a2.258,2.258,0,0,0-.306-1.411,1.971,1.971,0,0,0-.9-.643,2.143,2.143,0,0,0,1.3-2.039A1.823,1.823,0,0,0,37.62,1.9a4.266,4.266,0,0,0-1.777-.383,4.4,4.4,0,0,0-.446.023H31.181l-.008,7.666h1.841V6.386ZM43.378,2.437a4.09,4.09,0,0,0-1,3.006,3.846,3.846,0,0,0,.974,2.92,3.844,3.844,0,0,0,2.407.851c.057,0,.126,0,.238-.007h2.155L48.813,7.5h3.834l.72,1.709h3.719V3.457l3.48,5.75h2.592V1.541H61.287V6.907L58.06,1.541h-2.8V8.786L52.195,1.541H49.45L46.874,7.574h-.828a1.414,1.414,0,0,1-.148.006,1.787,1.787,0,0,1-1.131-.4,2.619,2.619,0,0,1-.507-1.8,2.554,2.554,0,0,1,.522-1.741,1.8,1.8,0,0,1,1.206-.464,1.541,1.541,0,0,1,.2.012h1.732V1.541H46.153c-.115-.008-.218-.013-.305-.013a3.736,3.736,0,0,0-2.47.932Zm-3.765-.9V9.207h1.871V1.541Zm-15.808,0-.039,7.666H29.9V7.582H25.622V6.049h4.209V4.515H25.645V3.128h4.294V1.541ZM20.552,3.2h0V9.207h1.894V1.541H19.382l-2.192,5.19-2.4-5.19H11.8V8.8l-3.12-7.26H5.957L2.676,9.207H4.654l.713-1.741H9.2l.682,1.741h3.734V3.189L16.3,9.207h1.61Z" transform="translate(0 0.76)"/><path class="a" d="M2.814,6.149V0L0,3.028l2.814,3.12Z" transform="translate(28.037 16.284)"/><path class="a" d="M0,3.067H2.507L1.242,0,0,3.067Z" transform="translate(6.026 3.58)"/><path class="a" d="M18.661,10.724H12.7L11.232,9.068,9.7,10.685H0V.005H9.806l1.426,1.641L12.765.005h6.624a4.09,4.09,0,0,1,2.577.629V.005H27.95l.089,0A4.723,4.723,0,0,1,30.4.635V.005H39.33V.635A3.406,3.406,0,0,1,41.321,0c.064,0,.13,0,.194.005H46.5V.635A3.805,3.805,0,0,1,48.565.029c.061,0,.131,0,.233.007h3.4L53.321.029,53.268,9.4l-1.135.767a6.463,6.463,0,0,1-2.446.479c-.069,0-.138,0-.206,0H44.743V9.965a4.155,4.155,0,0,1-2.288.688c-.068,0-.136,0-.2-.005H27.3V8.178c0-.307-.025-.307-.329-.307h-.229v2.8H21.82V7.78a6.024,6.024,0,0,1-2.155.4c-.139,0-.276,0-.406-.014h-.6v2.559Zm8.828-4.359a1.815,1.815,0,0,1,1.085.356,2.313,2.313,0,0,1,.291,1.534v.974H30.7V7.7a2.339,2.339,0,0,0-.307-1.41,1.864,1.864,0,0,0-.9-.652,2.145,2.145,0,0,0,1.3-2.07,1.779,1.779,0,0,0-.942-1.695,4.328,4.328,0,0,0-1.778-.38,3.965,3.965,0,0,0-.415.02H23.414V9.175h1.84V6.384h1.97A1.859,1.859,0,0,1,27.489,6.365ZM46.2,7.534V9.205h3.534a2.88,2.88,0,0,0,2.484-.966,2.974,2.974,0,0,0,.2-1.449c0-1.2-.311-1.53-.314-1.534a.7.7,0,0,0-.092-.107,2.885,2.885,0,0,0-1.79-.627c-.093,0-.187,0-.28.014h-1c-.039,0-.078,0-.116,0a1.8,1.8,0,0,1-.581-.1.584.584,0,0,1-.4-.575.6.6,0,0,1,.268-.559,1.281,1.281,0,0,1,.767-.146H52.2V1.485H48.63c-1.939,0-2.63,1.188-2.63,2.3,0,2.273,1.857,2.326,3.495,2.374l.338.01a.933.933,0,0,1,.119-.008.92.92,0,0,1,.533.169.634.634,0,0,1,.215.5.691.691,0,0,1-.215.506,1.034,1.034,0,0,1-.766.2H46.2Zm-7.207,0V9.205h3.565c1.908,0,2.883-.8,2.9-2.391a2.108,2.108,0,0,0-.536-1.625,2.808,2.808,0,0,0-1.744-.61,2.7,2.7,0,0,0-.334.02l-.988-.039c-.034,0-.072,0-.122,0a1.905,1.905,0,0,1-.6-.1.584.584,0,0,1-.445-.6.59.59,0,0,1,.275-.559,1.3,1.3,0,0,1,.615-.155,1.175,1.175,0,0,1,.152.009h3.389V1.485H41.446c-1.928,0-2.615,1.188-2.615,2.3,0,2.273,1.858,2.327,3.5,2.373l.338.011a.815.815,0,0,1,.108-.006.932.932,0,0,1,.536.167.635.635,0,0,1,.222.5.666.666,0,0,1-.222.506,1.1,1.1,0,0,1-.643.206,1.228,1.228,0,0,1-.124-.007ZM11.232,6.668h0l2.3,2.536h3.527V6.629h2.3a4,4,0,0,0,2.176-.488,2.291,2.291,0,0,0,.975-2.081A2.244,2.244,0,0,0,21.516,2a3.885,3.885,0,0,0-2.074-.464H13.585l-2.3,2.507L9.031,1.539H1.656V9.205H8.932l2.3-2.536Zm20.539-5.16h0V9.175H37.9V7.588H33.619V6.054H37.8V4.521H33.619V3.134H37.9V1.508H31.771Z" transform="translate(15.602 13.933)"/></g></svg>