<svg xmlns="http://www.w3.org/2000/svg" width="65" height="53" viewBox="0 0 65 53"><defs><style>.a{fill:none;}.b{fill:#231f20;}.c{fill:#ff5f00;}.d{fill:#eb001b;}.e{fill:#f79e1b;}</style></defs><rect class="a" width="65" height="53"/><path class="b" d="M47.571,6h0a.445.445,0,0,1-.4-.251.4.4,0,0,1,0-.319.425.425,0,0,1,.093-.13.429.429,0,0,1,.136-.086.409.409,0,0,1,.161-.031h.019a.4.4,0,0,1,.154.031.43.43,0,0,1,.136.086.425.425,0,0,1,.093.13.391.391,0,0,1,0,.319.425.425,0,0,1-.093.13.429.429,0,0,1-.136.086A.411.411,0,0,1,47.571,6Zm0-.708a.3.3,0,0,0-.128.026.312.312,0,0,0-.105.069.306.306,0,0,0,.105.5.331.331,0,0,0,.128.026.023.023,0,0,1,.011,0,.3.3,0,0,0,.116-.024.309.309,0,0,0,.1-.069.315.315,0,0,0,0-.431.309.309,0,0,0-.1-.069A.361.361,0,0,0,47.571,5.292Zm-28.2.613h-.01c-1,0-1.459-.486-1.459-1.528v-1.9h-.852v-.82h.834V.406h.923V1.658h1.5l.009.82H18.825V4.36c0,.459.2.691.607.691a1.824,1.824,0,0,0,.808-.233l.264.768A2.16,2.16,0,0,1,19.372,5.9Zm-4.951-.016a3.055,3.055,0,0,1-1.737-.536l.439-.7a2.275,2.275,0,0,0,1.332.433h.065c.618,0,.958-.178.958-.5,0-.229-.228-.362-.738-.432l-.439-.06c-.949-.13-1.45-.552-1.45-1.218,0-.814.674-1.32,1.758-1.32l.11,0a3.118,3.118,0,0,1,1.6.433l-.4.725A2.75,2.75,0,0,0,14.6,2.357c-.478,0-.8.194-.8.483s.351.358.711.406l.44.06c1.015.144,1.467.525,1.467,1.235,0,.818-.752,1.346-1.915,1.346Zm16.722-.014a2.125,2.125,0,0,1-1.485-.6,2.07,2.07,0,0,1-.635-1.565V3.7a2.073,2.073,0,0,1,.635-1.566,2.132,2.132,0,0,1,1.488-.6c.036,0,.071,0,.106,0l.122,0a2.228,2.228,0,0,1,1.4.5l-.439.725a1.883,1.883,0,0,0-1.1-.372,1.324,1.324,0,0,0,0,2.642,1.884,1.884,0,0,0,1.1-.372l.439.725a2.231,2.231,0,0,1-1.4.5l-.11,0C31.224,5.872,31.182,5.874,31.143,5.874Zm-7.8,0c-.043,0-.086,0-.13,0h-.031a2.188,2.188,0,0,1-2.2-2.128,2.125,2.125,0,0,1,.621-1.534,2.2,2.2,0,0,1,1.544-.653l.014.008A1.97,1.97,0,0,1,25.16,3.721v.346H22.041A1.157,1.157,0,0,0,23.2,5.081c.027,0,.059,0,.1,0a2.033,2.033,0,0,0,1.221-.431l.44.664A2.619,2.619,0,0,1,23.344,5.874ZM23.1,2.356a1.073,1.073,0,0,0-1.078,1h2.2a1.023,1.023,0,0,0-.32-.716,1.046,1.046,0,0,0-.719-.284H23.1Zm20.81,3.515H43.85a2.18,2.18,0,0,1-2.2-2.158,2.18,2.18,0,0,1,2.2-2.158h.06a1.611,1.611,0,0,1,1.257.6V0h.879V5.767h-.879v-.5A1.592,1.592,0,0,1,43.907,5.872Zm.026-3.325a1.26,1.26,0,0,0-1.265,1.174,1.227,1.227,0,0,0,.343.934,1.278,1.278,0,0,0,.914.387h.016a1.247,1.247,0,0,0,.041-2.494ZM35.406,5.872h-.058a2.18,2.18,0,0,1-2.2-2.158,2.18,2.18,0,0,1,2.2-2.158h.06a1.594,1.594,0,0,1,1.258.6v-.5h.914V5.767h-.914v-.5A1.6,1.6,0,0,1,35.406,5.872Zm.041-3.334A1.262,1.262,0,0,0,34.18,3.713a1.229,1.229,0,0,0,.343.934,1.278,1.278,0,0,0,.914.386h.016a1.252,1.252,0,0,0,1.264-1.227A1.265,1.265,0,0,0,35.5,2.539ZM9.639,5.872H9.581a2.18,2.18,0,0,1-2.2-2.158,2.18,2.18,0,0,1,2.2-2.158h.06a1.594,1.594,0,0,1,1.258.6v-.5h.913V5.767H10.9v-.5A1.6,1.6,0,0,1,9.639,5.872ZM8.4,3.721h0a1.23,1.23,0,0,0,.347.938,1.28,1.28,0,0,0,.914.384h.023a1.247,1.247,0,0,0,.04-2.494h-.05A1.26,1.26,0,0,0,8.413,3.721ZM3.787,5.8H2.865V3.5c0-.711-.316-1.087-.914-1.087l-.052,0a.992.992,0,0,0-.725.312.952.952,0,0,0-.251.786V5.784H0V1.658H.914v.509a1.391,1.391,0,0,1,1.158-.615l.066,0h.074a1.557,1.557,0,0,1,1.321.735A1.623,1.623,0,0,1,4.9,1.551a.842.842,0,0,1,.108,0l.093,0a1.582,1.582,0,0,1,1.111.455A1.521,1.521,0,0,1,6.66,3.194v2.59L5.738,5.8V3.5c0-.721-.31-1.087-.923-1.087H4.766a1,1,0,0,0-.725.313.954.954,0,0,0-.253.784V5.8ZM47.5,5.785h-.084V5.4l.184,0h.008a.169.169,0,0,1,.106.034.11.11,0,0,1,.04.091.1.1,0,0,1-.031.077.155.155,0,0,1-.092.04l.126.14-.1,0-.119-.142H47.5v.142Zm-7.8,0h-.914V1.658h.9v.5a1.247,1.247,0,0,1,1.069-.6H40.8l-.017-.018a2.106,2.106,0,0,1,.65.113l-.281.863a1.509,1.509,0,0,0-.551-.1h-.021c-.575,0-.878.367-.878,1.062V5.783Zm-12.693,0h-.913V1.658H27v.5a1.245,1.245,0,0,1,1.069-.6H28.1l-.018-.018a2.126,2.126,0,0,1,.651.113l-.282.863a1.507,1.507,0,0,0-.55-.1h-.021c-.575,0-.879.367-.879,1.062V5.783Z" transform="translate(9 41)"/><g transform="translate(8 6)"><rect class="c" width="13.731" height="24.815" transform="translate(18.591 3.441)"/><path class="d" d="M19.4,15.783a15.787,15.787,0,0,1,5.994-12.41,15.629,15.629,0,0,0-21.225,1.7,15.846,15.846,0,0,0,0,21.412,15.629,15.629,0,0,0,21.225,1.7A15.787,15.787,0,0,1,19.4,15.783Z" transform="translate(0.068 0.068)"/><path class="e" d="M25.391,15.785a15.789,15.789,0,0,1-8.835,14.194A15.62,15.62,0,0,1,0,28.19,15.813,15.813,0,0,0,6,15.783,15.813,15.813,0,0,0,0,3.375,15.62,15.62,0,0,1,16.556,1.587a15.789,15.789,0,0,1,8.835,14.194Z" transform="translate(25.456 0.066)"/><path class="e" d="M1.4,1.524h0V.378L1.2,1.362H1.069L.877.378V1.513H.748V0H.906l.208,1.081L1.322,0H1.5V1.513l-.1.011ZM.356,1.513h-.1V.259H0V0H.59V.259H.356V1.512Z" transform="translate(49.034 25.013)"/></g></svg>