<svg xmlns="http://www.w3.org/2000/svg" width="55.102" height="38.241" viewBox="0 0 55.102 38.241"><defs><style>.a{fill:#0086c3;}</style></defs><g transform="translate(0 -0.949)"><path class="a" d="M52.143,38.241a3.905,3.905,0,0,1-1.724-.418l-.362.285-.257-.133a14.572,14.572,0,0,0,.181-2.162V30.594c0-.77-.164-.815-.6-.937l-.054-.015v-.181a8.3,8.3,0,0,0,1.286-.524,1.059,1.059,0,0,1,.257-.134c.1,0,.1.076.1.181v4.372A3.081,3.081,0,0,1,52.8,32.5a2.372,2.372,0,0,1,2.3,2.552A3.081,3.081,0,0,1,52.143,38.241ZM52.1,32.927a1.912,1.912,0,0,0-1.182.581v2.914l-.028.01a1.322,1.322,0,0,0,1.285,1.228c1.309,0,1.905-1.22,1.905-2.353A2.311,2.311,0,0,0,52.1,32.927ZM37.273,38.237a4.258,4.258,0,0,1-4.244-4.606,4.392,4.392,0,0,1,4.39-4.3h.049a7.979,7.979,0,0,1,2.771.658l.133,1.695h-.285a2.249,2.249,0,0,0-.839-1.528,2.28,2.28,0,0,0-1.417-.5,2.413,2.413,0,0,0-.259.015,3.246,3.246,0,0,0-2.157.843,3.984,3.984,0,0,0-1.157,3.043,4.671,4.671,0,0,0,1.073,3.061,3.247,3.247,0,0,0,2.423,1.2A2.434,2.434,0,0,0,40.1,35.7l.266.076-.266,1.8a6.471,6.471,0,0,1-2.61.658C37.421,38.236,37.347,38.237,37.273,38.237ZM19.762,38.2h0a2.467,2.467,0,0,1-2.4-2.667c0-2.278,1.515-3.1,2.534-3.1.044,0,.092-.006.154-.006a1.963,1.963,0,0,1,1.96,1.912v.209l-.1.076H18.353a2.642,2.642,0,0,0,0,.715,2.063,2.063,0,0,0,1.847,2.1,2.47,2.47,0,0,0,1.705-.8l.181.181A2.948,2.948,0,0,1,19.762,38.2Zm-.025-5.284a1.4,1.4,0,0,0-1.356,1.055H20.6l.029.029a.484.484,0,0,0,.308-.073A.2.2,0,0,0,21,33.765c0-.5-.451-.839-1.123-.839A1.22,1.22,0,0,0,19.737,32.919Zm8.092,5.236a2.86,2.86,0,0,1-1.457-.419l-.134-1.409.21-.076V36.3c.189.944.741,1.486,1.515,1.486a.7.7,0,0,0,.124.009.876.876,0,0,0,.876-.866c0-.66-.563-.917-1.16-1.19-.7-.319-1.488-.682-1.488-1.763A1.675,1.675,0,0,1,27.987,32.4a1.661,1.661,0,0,1,.231.016,2.813,2.813,0,0,1,1.353.362l.086,1.257h-.3a1.218,1.218,0,0,0-1.219-1.212l-.085,0a.882.882,0,0,0-.1-.005.859.859,0,0,0-.856.814c0,.67.605.923,1.247,1.192.759.318,1.544.646,1.544,1.666C29.9,37.291,29.249,38.156,27.829,38.156ZM14.047,37.7H11.59v-.286h.2c.344,0,.552,0,.552-.39V33.946h-.067c0-.426-.148-.549-.657-.752v-.21c.538-.176.961-.319,1.515-.553.008,0,.076.007.076.105v.8a3.389,3.389,0,0,1,2.029-.9c.848,0,1.315.575,1.315,1.619V37c0,.391.252.391.571.391h.21v.286H14.876v-.286h.21c.345,0,.553,0,.553-.391V34.032c0-.623-.362-.952-1.048-.952a3,3,0,0,0-1.334.552v3.391c0,.39.257.39.581.39h.209V37.7ZM3.4,37.7H0v-.314l.115-.019c.651-.108,1.009-.167,1.009-.933V30.641c0-1.02-.571-1.02-1.124-1.02v-.314H3.552a5.077,5.077,0,0,1,3.6,1.312,4.041,4.041,0,0,1,1.254,2.9C8.41,33.945,8.269,37.7,3.4,37.7Zm-.478-7.906a7.261,7.261,0,0,0-.846.058v6.286l.038.009a.873.873,0,0,0,.409.833,1.758,1.758,0,0,0,.848.167,3.374,3.374,0,0,0,2.49-.911,3.762,3.762,0,0,0,.977-2.708,3.571,3.571,0,0,0-3.567-3.741c-.081,0-.163,0-.243.008ZM45.509,37.68a1.237,1.237,0,0,1-1.232-1.354V33.336c0-.281,0-.572-.7-.657v-.2h.013c.261,0,.722-.033,1.058-.057.224-.016.387-.027.443-.027a.134.134,0,0,1,.1.029c.036.036.035.108.034.228,0,.032,0,.058,0,.086v2.952c0,.33,0,1.334,1.02,1.334a2.53,2.53,0,0,0,1.381-.7V33.242c0-.218-.5-.348-.893-.452l-.01,0-.049-.013v-.21c.617-.044,1.095-.089,1.411-.119H48.1c.217-.021.335-.031.375-.031.105,0,.105.075.105.2v4.238l-.048.029a.2.2,0,0,0,.049.153c.057.057.162.057.294.057h.466v.229a12.33,12.33,0,0,0-1.676.362h-.048v-.952a3.108,3.108,0,0,1-2.057.952Zm-20.575-.02H22.143v-.267l-.133-.028h.285c.315,0,.524,0,.524-.391V33.736c0-.28-.236-.379-.408-.451l-.014-.006-.018-.008a.832.832,0,0,1-.1-.05v-.19c.4-.187.724-.359.9-.451l.014-.007.02-.011.018-.01.012-.006.01-.005.022-.013.024-.013a1.256,1.256,0,0,1,.288-.132c.086,0,.1,0,.1.153v1.048l0-.008c.23-.381.707-1.173,1.388-1.173h.007a.619.619,0,0,1,.622.61.534.534,0,0,1-.5.571.468.468,0,0,1-.33-.137A.5.5,0,0,0,24.5,33.3a.955.955,0,0,0-.686.991v2.686c0,.4.208.4.524.4h.6v.285Zm-13.953-.01H8.372v-.285h.238c.349,0,.6,0,.6-.391v-3.1c0-.482-.169-.566-.619-.79l-.038-.019v-.182c.226-.063.515-.155.91-.291l.031-.01.037-.013.022-.007c.16-.055.286-.1.305-.1a.385.385,0,0,1,.189-.058h.021c.105,0,.105.086.105.162v4.41c0,.391.251.391.6.391h.21v.284Zm32.572-.01h-2.61v-.248h.21c.335,0,.6,0,.6-.391V30.479c0-.732-.164-.787-.6-.933l-.057-.019v-.191a7.46,7.46,0,0,0,1.257-.5,1.059,1.059,0,0,1,.257-.124c.07,0,.1.05.1.152v8.067c0,.4.264.4.629.4h.21v.3ZM9.419,30.317a.531.531,0,0,1-.524-.524.569.569,0,0,1,.524-.524.539.539,0,0,1,.514.524.527.527,0,0,1-.514.524ZM30.436,26.25H24.16a13.143,13.143,0,0,1-13.141-13.01,12.949,12.949,0,0,1,.924-5.108A12.942,12.942,0,0,1,23.961,0l.277,0H30.4A14.262,14.262,0,0,1,35.555.97,13.661,13.661,0,0,1,39.92,3.686a12.853,12.853,0,0,1,4.156,9.554,11.993,11.993,0,0,1-1.128,5.045,13.371,13.371,0,0,1-3.016,4.137A14.066,14.066,0,0,1,30.436,26.25ZM24.127,1.069a12.067,12.067,0,1,0,0,24.133h.029a12.067,12.067,0,0,0-.025-24.133ZM21.513,20h0a7.641,7.641,0,0,1-4.758-7.075A7.617,7.617,0,0,1,21.515,5.8l0,14.2Zm5.249,0V5.852a7.616,7.616,0,0,1,0,14.149Z" transform="translate(0 0.949)"/></g></svg>