<svg xmlns="http://www.w3.org/2000/svg" width="64.134" height="19.656" viewBox="0 0 64.134 19.656"><defs><style>.a{fill:none;}.b{fill:#005e9c;}</style></defs><path class="a" d="M4.12,4.4A41.33,41.33,0,0,1,4.05,0H3.98c-.3.94-1.59,3.74-2.15,5.12L0,9.25l4.44-.06Z" transform="translate(50.82 3.46)"/><path class="a" d="M.9.475C.9.235.665.2.465.2H.095V.8h.37C.685.8.9.775.9.475Z" transform="translate(61.905 1.025)"/><path class="a" d="M1.409,3.07h0A1.4,1.4,0,0,1,.01,1.58,1.41,1.41,0,0,1,1.4,0h.006A1.421,1.421,0,0,1,2.821,1.54,1.42,1.42,0,0,1,1.44,3.07ZM1.08,1.72h.291l.54.86h.37l-.55-.87c.312-.04.519-.15.519-.56C2.25.756,2.022.58,1.51.58H.741v2H1.08V1.721Z" transform="translate(60.92 0.42)"/><path class="b" d="M5.06,18.78,10.48,0,5.43.07,0,18.85l5.06-.07Z" transform="translate(18.57 0.53)"/><path class="b" d="M11,18.84,21.34,0,16.06.07l-4.45,8a19.35,19.35,0,0,0-2.1,4.46H9.44c.06-1.67-.2-3.71-.24-4.86L8.6.17.08.28,0,.79A3.53,3.53,0,0,1,3.89,4.08L5.75,18.91Z" transform="translate(0 0.64)"/><path class="b" d="M0,18.89H0L9.71.09,16.46,0,18.4,18.66l-5.15.07-.18-2.78-6.32.08L5.5,18.83,0,18.89ZM12.38,3.29c-.18.561-.714,1.791-1.231,2.981-.357.821-.693,1.6-.919,2.159L8.4,12.54l4.441-.059L12.52,7.69a41.392,41.392,0,0,1-.07-4.4Z" transform="translate(42.42 0.17)"/><path class="b" d="M7.8,15.7c-2.74,0-3.95-.93-5.48-1.76L0,17.65a14.12,14.12,0,0,0,7.67,2c3.14,0,6.13-.92,7.61-4.73.87-2.21,0-4.56-3.6-6.75l-1.17-.73C8.95,6.51,8.25,5.81,8.76,4.76a2.35,2.35,0,0,1,2.15-1,6.11,6.11,0,0,1,3.94,1.67l2.73-3.29A11.37,11.37,0,0,0,10.93,0c-3.84.05-6.15,1.69-7,3.83-1.34,3.34,0,5.22,2.91,7.19l1,.62c2,1.09,2.86,1.73,2.18,3A2.39,2.39,0,0,1,7.8,15.7Z" transform="translate(27 0)"/><path class="b" d="M1.8,3.7A1.8,1.8,0,0,1,0,1.9,1.778,1.778,0,0,1,1.777,0h.051A1.78,1.78,0,0,1,3.6,1.9,1.8,1.8,0,0,1,1.8,3.7Zm0-3.328A1.41,1.41,0,0,0,.4,1.9a1.4,1.4,0,0,0,1.38,1.44h.05A1.426,1.426,0,0,0,3.214,1.9,1.41,1.41,0,0,0,1.809.372Z" transform="translate(60.526 0.099)"/><path class="b" d="M1.59,2.03H1.22L.68,1.17H.37V2H0V0H.81c.478,0,.7.181.7.571s-.231.486-.5.57l.58.889ZM.37.291V.88L.75.89C.994.88,1.22.834,1.22.561S.976.291.78.291Z" transform="translate(61.63 0.95)"/></svg>